SplineFontDB: 3.2
FontName: GTA2Mission
FullName: GTA2 Mission
FamilyName: GTA2 Mission
Weight: Book
Copyright: Typeface (c) (your company). 2014. All Rights Reserved
Version: 1.00 February 20, 2014, initial release
ItalicAngle: 0
UnderlinePosition: -292
UnderlineWidth: 150
Ascent: 1638
Descent: 410
InvalidEm: 0
sfntRevision: 0x00010000
LayerCount: 2
Layer: 0 1 "Back" 1
Layer: 1 1 "Fore" 0
XUID: [1021 60 -1592195532 32236]
StyleMap: 0x0040
FSType: 8
OS2Version: 1
OS2_WeightWidthSlopeOnly: 0
OS2_UseTypoMetrics: 0
CreationTime: 1392939014
ModificationTime: 1636909484
PfmFamily: 17
TTFWeight: 400
TTFWidth: 5
LineGap: 67
VLineGap: 0
Panose: 2 0 5 0 0 0 0 0 0 0
OS2TypoAscent: 1491
OS2TypoAOffset: 0
OS2TypoDescent: -431
OS2TypoDOffset: 0
OS2TypoLinegap: 307
OS2WinAscent: 1854
OS2WinAOffset: 0
OS2WinDescent: 434
OS2WinDOffset: 0
HheadAscent: 1854
HheadAOffset: 0
HheadDescent: -434
HheadDOffset: 0
OS2SubXSize: 1434
OS2SubYSize: 1331
OS2SubXOff: 0
OS2SubYOff: 283
OS2SupXSize: 1434
OS2SupYSize: 1331
OS2SupXOff: 0
OS2SupYOff: 977
OS2StrikeYSize: 102
OS2StrikeYPos: 530
OS2Vendor: 'HL  '
OS2CodePages: 00000005.00000000
OS2UnicodeRanges: 00000203.00000000.00000000.00000000
DEI: 91125
ShortTable: maxp 16
  1
  0
  139
  57
  4
  22
  2
  0
  0
  0
  0
  0
  0
  0
  2
  1
EndShort
LangName: 1033 "Typeface +AKkA (your company). 2014. All Rights Reserved" "" "Regular" "GTA2 Mission:Version 1.00" "" "Version 1.00 February 20, 2014, initial release" "" "" "" "" "This font was created using FontCreator 5.6 from High-Logic.com"
LangName: 1027 "" "" "Normal"
LangName: 1029 "" "" "oby+AQ0A-ejn+AOkA"
LangName: 1030 "" "" "normal"
LangName: 1031 "" "" "Standard"
LangName: 1032 "" "" "+A5oDsQO9A78DvQO5A7oDrAAA"
LangName: 1034 "" "" "Normal"
LangName: 1035 "" "" "Normaali"
LangName: 1036 "" "" "Normal"
LangName: 1038 "" "" "Norm+AOEA-l"
LangName: 1040 "" "" "Normale"
LangName: 1043 "" "" "Standaard"
LangName: 1044 "" "" "Normal"
LangName: 1045 "" "" "Normalny"
LangName: 1046 "" "" "Normal"

StartChar: .notdef
Encoding: 65536 -1 0
Width: 1024
Flags: W
LayerCount: 2
Fore
SplineSet
100 0 m 1,0,-1
 100 1434 l 1,1,-1
 924 1434 l 1,2,-1
 924 0 l 1,3,-1
 100 0 l 1,0,-1
150 50 m 1,4,-1
 874 50 l 1,5,-1
 874 1384 l 1,6,-1
 150 1384 l 1,7,-1
 150 50 l 1,4,-1
325 1148 m 1,8,9
 356 1176 356 1176 383 1191 c 0,10,11
 436 1221 436 1221 495 1221 c 0,12,13
 587 1221 587 1221 643 1173.5 c 128,-1,14
 699 1126 699 1126 699 1046 c 0,15,16
 699 997 699 997 676 947.5 c 128,-1,17
 653 898 653 898 589 818 c 0,18,19
 526 738 526 738 490 686 c 128,-1,20
 454 634 454 634 454 587 c 0,21,22
 454 549 454 549 478 454 c 1,23,-1
 446 454 l 1,24,25
 411 551 411 551 411 602 c 0,26,27
 411 678 411 678 492.5 820 c 128,-1,28
 574 962 574 962 574 1037 c 0,29,30
 574 1094 574 1094 541 1127 c 128,-1,31
 508 1160 508 1160 450 1160 c 0,32,33
 412 1160 412 1160 381 1143 c 0,34,35
 355 1128 355 1128 325 1103 c 1,36,-1
 325 1148 l 1,8,9
389 334 m 2,37,-1
 446 392 l 2,38,39
 457 402 457 402 466 402 c 0,40,41
 476 402 476 402 488 391 c 2,42,-1
 544 331 l 2,43,44
 553 320 553 320 553 311 c 0,45,46
 553 300 553 300 543 289 c 2,47,-1
 487 227 l 2,48,49
 473 213 473 213 466 213 c 0,50,51
 455 213 455 213 446 223 c 2,52,-1
 385 294 l 2,53,54
 378 303 378 303 378 312 c 0,55,56
 378 322 378 322 389 334 c 2,37,-1
EndSplineSet
Validated: 1
EndChar

StartChar: exclam
Encoding: 33 33 4
Width: 461
Flags: W
LayerCount: 2
Fore
SplineSet
73 1431 m 1,0,-1
 388 1431 l 1,1,-1
 406 1413 l 1,2,-1
 406 1035 l 1,3,4
 322 405 322 405 289 405 c 2,5,-1
 172 405 l 2,6,7
 145 405 145 405 55 1044 c 1,8,-1
 55 1413 l 1,9,-1
 73 1431 l 1,0,-1
73 279 m 1,10,-1
 388 279 l 1,11,-1
 406 261 l 1,12,-1
 406 18 l 1,13,-1
 388 0 l 1,14,-1
 73 0 l 1,15,-1
 55 18 l 1,16,-1
 55 261 l 1,17,-1
 73 279 l 1,10,-1
EndSplineSet
Validated: 1
EndChar

StartChar: dollar
Encoding: 36 36 5
Width: 947
Flags: W
LayerCount: 2
Fore
SplineSet
341 1431 m 1,0,-1
 341 1588 l 1,1,-1
 603 1588 l 1,2,-1
 603 1431 l 1,3,-1
 649 1431 l 1,4,5
 873 1247 873 1247 892 1215 c 1,6,-1
 892 981 l 1,7,-1
 874 963 l 1,8,-1
 559 963 l 1,9,-1
 541 981 l 1,10,-1
 541 1161 l 1,11,-1
 406 1161 l 1,12,-1
 406 873 l 1,13,-1
 658 855 l 1,14,-1
 892 639 l 1,15,-1
 892 207 l 1,16,17
 681 0 681 0 640 0 c 2,18,-1
 603 0 l 1,19,-1
 603 -151 l 1,20,-1
 341 -151 l 1,21,-1
 341 0 l 1,22,-1
 289 0 l 1,23,-1
 55 216 l 1,24,-1
 55 441 l 1,25,-1
 73 459 l 1,26,-1
 388 459 l 1,27,-1
 406 441 l 1,28,-1
 406 270 l 1,29,-1
 541 270 l 1,30,-1
 541 567 l 1,31,32
 273 567 273 567 226 648 c 1,33,-1
 55 801 l 1,34,-1
 55 1215 l 1,35,-1
 289 1431 l 1,36,-1
 341 1431 l 1,0,-1
EndSplineSet
Validated: 1
EndChar

StartChar: ampersand
Encoding: 38 38 6
Width: 1356
Flags: W
LayerCount: 2
Fore
SplineSet
309 1431 m 1,0,-1
 667 1431 l 1,1,-1
 897 1212 l 1,2,-1
 897 981 l 1,3,-1
 736 819 l 1,4,-1
 817 692 l 1,5,-1
 840 692 l 1,6,7
 840 739 840 739 897 773 c 1,8,-1
 1163 773 l 1,9,-1
 1186 750 l 1,10,-1
 1001 462 l 1,11,-1
 1001 439 l 1,12,-1
 1301 12 l 1,13,-1
 1290 0 l 1,14,-1
 932 0 l 1,15,16
 888 28 888 28 817 162 c 1,17,-1
 690 0 l 1,18,-1
 297 0 l 1,19,20
 139 120 139 120 55 219 c 1,21,-1
 55 565 l 2,22,23
 55 595 55 595 263 704 c 1,24,-1
 263 727 l 1,25,26
 126 804 126 804 78 866 c 1,27,-1
 78 1212 l 1,28,29
 181 1329 181 1329 309 1431 c 1,0,-1
413 1154 m 1,30,-1
 413 866 l 1,31,-1
 551 866 l 1,32,-1
 551 1154 l 1,33,-1
 413 1154 l 1,30,-1
413 612 m 1,34,-1
 413 277 l 1,35,-1
 563 277 l 1,36,-1
 655 392 l 1,37,38
 528 603 528 603 505 612 c 1,39,-1
 413 612 l 1,34,-1
EndSplineSet
Validated: 1
EndChar

StartChar: comma
Encoding: 44 44 7
Width: 478
Flags: W
LayerCount: 2
Fore
SplineSet
78 279 m 1,0,-1
 400 279 l 1,1,-1
 423 256 l 1,2,-1
 423 83 l 2,3,4
 423 25 423 25 228 -205 c 1,5,-1
 216 -205 l 1,6,-1
 113 -136 l 1,7,-1
 113 -124 l 1,8,-1
 205 -9 l 1,9,-1
 205 2 l 1,10,-1
 78 2 l 1,11,-1
 55 25 l 1,12,-1
 55 256 l 1,13,-1
 78 279 l 1,0,-1
EndSplineSet
Validated: 1
EndChar

StartChar: hyphen
Encoding: 45 45 8
Width: 979
Flags: W
LayerCount: 2
Fore
SplineSet
924 884 m 1,0,-1
 924 667 l 1,1,-1
 55 667 l 1,2,-1
 55 884 l 1,3,-1
 924 884 l 1,0,-1
EndSplineSet
Validated: 1
EndChar

StartChar: period
Encoding: 46 46 9
Width: 479
Flags: W
LayerCount: 2
Fore
SplineSet
78 277 m 1,0,-1
 401 277 l 1,1,-1
 424 254 l 1,2,-1
 424 23 l 1,3,-1
 401 0 l 1,4,-1
 78 0 l 1,5,-1
 55 23 l 1,6,-1
 55 254 l 1,7,-1
 78 277 l 1,0,-1
EndSplineSet
Validated: 1
EndChar

StartChar: zero
Encoding: 48 48 10
Width: 1007
Flags: W
LayerCount: 2
Fore
SplineSet
308 1429 m 1,0,-1
 665 1429 l 2,1,2
 718 1429 718 1429 952 1210 c 1,3,-1
 952 221 l 1,4,-1
 711 2 l 1,5,-1
 308 2 l 1,6,7
 109 152 109 152 55 221 c 1,8,-1
 55 1210 l 1,9,10
 105 1272 105 1272 308 1429 c 1,0,-1
423 1153 m 1,11,-1
 423 279 l 1,12,-1
 573 279 l 1,13,-1
 573 1153 l 1,14,-1
 423 1153 l 1,11,-1
EndSplineSet
Validated: 1
EndChar

StartChar: one
Encoding: 49 49 11
Width: 627
Flags: W
LayerCount: 2
Fore
SplineSet
412 1429 m 1,0,-1
 550 1429 l 1,1,-1
 573 1406 l 1,2,-1
 573 25 l 1,3,-1
 550 2 l 1,4,-1
 228 2 l 1,5,-1
 205 25 l 1,6,-1
 205 1153 l 1,7,-1
 78 1153 l 1,8,-1
 55 1176 l 1,9,-1
 55 1337 l 2,10,11
 55 1371 55 1371 412 1429 c 1,0,-1
EndSplineSet
Validated: 1
EndChar

StartChar: two
Encoding: 50 50 12
Width: 996
Flags: W
LayerCount: 2
Fore
SplineSet
308 1429 m 1,0,-1
 688 1429 l 1,1,-1
 941 1210 l 1,2,-1
 941 842 l 1,3,-1
 423 394 l 1,4,-1
 423 279 l 1,5,-1
 918 279 l 1,6,-1
 941 256 l 1,7,-1
 941 25 l 1,8,-1
 918 2 l 1,9,-1
 78 2 l 1,10,-1
 55 25 l 1,11,-1
 55 486 l 1,12,-1
 573 946 l 1,13,-1
 573 1153 l 1,14,-1
 423 1153 l 1,15,-1
 423 992 l 1,16,-1
 400 969 l 1,17,-1
 78 969 l 1,18,-1
 55 992 l 1,19,-1
 55 1210 l 1,20,-1
 308 1429 l 1,0,-1
EndSplineSet
Validated: 1
EndChar

StartChar: three
Encoding: 51 51 13
Width: 984
Flags: W
LayerCount: 2
Fore
SplineSet
285 1429 m 1,0,-1
 665 1429 l 1,1,-1
 929 1210 l 1,2,-1
 929 900 l 1,3,4
 857 813 857 813 722 739 c 1,5,-1
 722 727 l 1,6,-1
 929 555 l 1,7,-1
 929 221 l 1,8,-1
 676 2 l 1,9,-1
 285 2 l 1,10,-1
 55 221 l 1,11,-1
 55 440 l 1,12,-1
 78 463 l 1,13,-1
 389 463 l 1,14,-1
 412 440 l 1,15,-1
 412 279 l 1,16,-1
 550 279 l 1,17,-1
 550 589 l 1,18,-1
 377 589 l 1,19,-1
 354 612 l 1,20,-1
 354 842 l 1,21,-1
 377 865 l 1,22,-1
 550 865 l 1,23,-1
 550 1153 l 1,24,-1
 412 1153 l 1,25,-1
 412 1003 l 1,26,-1
 389 980 l 1,27,-1
 78 980 l 1,28,-1
 55 1003 l 1,29,-1
 55 1210 l 1,30,-1
 285 1429 l 1,0,-1
EndSplineSet
Validated: 1
EndChar

StartChar: four
Encoding: 52 52 14
Width: 1149
Flags: W
LayerCount: 2
Fore
SplineSet
622 1429 m 1,0,-1
 933 1429 l 1,1,-1
 956 1406 l 1,2,-1
 956 532 l 1,3,-1
 1071 532 l 1,4,-1
 1094 509 l 1,5,-1
 1094 313 l 1,6,-1
 1071 290 l 1,7,-1
 956 290 l 1,8,-1
 956 25 l 1,9,-1
 933 2 l 1,10,-1
 611 2 l 1,11,-1
 588 25 l 1,12,-1
 588 290 l 1,13,-1
 95 290 l 1,14,15
 55 314 55 314 70 555 c 1,16,17
 542 1337 542 1337 622 1429 c 1,0,-1
576 957 m 1,18,-1
 357 555 l 1,19,-1
 357 532 l 1,20,-1
 588 532 l 1,21,-1
 588 957 l 1,22,-1
 576 957 l 1,18,-1
EndSplineSet
Validated: 33
EndChar

StartChar: five
Encoding: 53 53 15
Width: 984
Flags: W
LayerCount: 2
Fore
SplineSet
90 1429 m 1,0,-1
 803 1429 l 1,1,-1
 826 1406 l 1,2,-1
 826 1176 l 1,3,-1
 803 1153 l 1,4,-1
 423 1153 l 1,5,-1
 423 900 l 1,6,-1
 481 900 l 2,7,8
 737 900 737 900 768 831 c 1,9,-1
 929 681 l 1,10,-1
 929 221 l 1,11,12
 845 122 845 122 688 2 c 1,13,-1
 297 2 l 1,14,-1
 55 209 l 1,15,-1
 55 463 l 1,16,-1
 78 486 l 1,17,-1
 400 486 l 1,18,-1
 423 463 l 1,19,-1
 423 279 l 1,20,-1
 561 279 l 1,21,-1
 561 612 l 1,22,-1
 389 612 l 2,23,24
 291 612 291 612 67 831 c 1,25,-1
 67 1406 l 1,26,-1
 90 1429 l 1,0,-1
EndSplineSet
Validated: 1
EndChar

StartChar: six
Encoding: 54 54 16
Width: 995
Flags: W
LayerCount: 2
Fore
SplineSet
308 1429 m 1,0,-1
 688 1429 l 1,1,-1
 941 1210 l 1,2,-1
 941 992 l 1,3,-1
 918 969 l 1,4,-1
 596 969 l 1,5,-1
 573 992 l 1,6,-1
 573 1153 l 1,7,-1
 423 1153 l 1,8,-1
 423 854 l 1,9,-1
 699 854 l 1,10,11
 880 723 880 723 941 647 c 1,12,-1
 941 221 l 1,13,-1
 699 2 l 1,14,-1
 331 2 l 2,15,16
 274 2 274 2 55 221 c 1,17,-1
 55 1210 l 1,18,19
 189 1344 189 1344 308 1429 c 1,0,-1
423 578 m 1,20,-1
 423 279 l 1,21,-1
 573 279 l 1,22,-1
 573 578 l 1,23,-1
 423 578 l 1,20,-1
EndSplineSet
Validated: 1
EndChar

StartChar: seven
Encoding: 55 55 17
Width: 950
Flags: W
LayerCount: 2
Fore
SplineSet
78 1429 m 1,0,-1
 872 1429 l 1,1,-1
 895 1406 l 1,2,-1
 895 1176 l 1,3,-1
 446 2 l 1,4,-1
 90 2 l 1,5,-1
 78 14 l 1,6,-1
 67 14 l 1,7,-1
 550 1153 l 1,8,-1
 377 1153 l 1,9,-1
 377 1038 l 1,10,-1
 354 1015 l 1,11,-1
 78 1015 l 1,12,-1
 55 1038 l 1,13,-1
 55 1406 l 1,14,-1
 78 1429 l 1,0,-1
EndSplineSet
Validated: 1
EndChar

StartChar: eight
Encoding: 56 56 18
Width: 996
Flags: W
LayerCount: 2
Fore
SplineSet
320 1429 m 1,0,-1
 665 1429 l 1,1,-1
 918 1210 l 1,2,-1
 918 888 l 1,3,-1
 745 727 l 1,4,5
 892 644 892 644 941 578 c 1,6,-1
 941 221 l 1,7,8
 845 110 845 110 699 2 c 1,9,-1
 308 2 l 1,10,-1
 55 221 l 1,11,-1
 55 578 l 1,12,-1
 251 739 l 1,13,-1
 90 888 l 1,14,-1
 90 1210 l 1,15,16
 192 1328 192 1328 320 1429 c 1,0,-1
423 1153 m 1,17,-1
 423 865 l 1,18,-1
 573 865 l 1,19,-1
 573 1153 l 1,20,-1
 423 1153 l 1,17,-1
423 589 m 1,21,-1
 423 279 l 1,22,-1
 573 279 l 1,23,-1
 573 589 l 1,24,-1
 423 589 l 1,21,-1
EndSplineSet
Validated: 1
EndChar

StartChar: nine
Encoding: 57 57 19
Width: 984
Flags: W
LayerCount: 2
Fore
SplineSet
285 1429 m 1,0,-1
 688 1429 l 1,1,2
 886 1269 886 1269 929 1210 c 1,3,-1
 929 221 l 1,4,5
 886 162 886 162 688 2 c 1,6,-1
 297 2 l 1,7,8
 151 110 151 110 55 221 c 1,9,-1
 55 440 l 1,10,-1
 78 463 l 1,11,-1
 389 463 l 1,12,-1
 412 440 l 1,13,-1
 412 279 l 1,14,-1
 561 279 l 1,15,-1
 561 566 l 1,16,-1
 274 566 l 1,17,18
 74 724 74 724 55 762 c 1,19,-1
 55 1222 l 1,20,-1
 285 1429 l 1,0,-1
412 1153 m 1,21,-1
 412 842 l 1,22,-1
 561 842 l 1,23,-1
 561 1153 l 1,24,-1
 412 1153 l 1,21,-1
EndSplineSet
Validated: 1
EndChar

StartChar: question
Encoding: 63 63 22
Width: 964
Flags: W
LayerCount: 2
Fore
SplineSet
297 1431 m 1,0,-1
 620 1431 l 2,1,2
 678 1431 678 1431 909 1212 c 1,3,-1
 909 877 l 1,4,-1
 667 646 l 1,5,-1
 667 427 l 1,6,-1
 644 404 l 1,7,-1
 320 404 l 1,8,-1
 297 427 l 1,9,-1
 297 692 l 1,10,-1
 540 912 l 1,11,-1
 540 1154 l 1,12,-1
 413 1154 l 1,13,-1
 413 923 l 1,14,-1
 390 900 l 1,15,-1
 78 900 l 1,16,-1
 55 923 l 1,17,-1
 55 1212 l 1,18,-1
 297 1431 l 1,0,-1
320 277 m 1,19,-1
 644 277 l 1,20,-1
 667 254 l 1,21,-1
 667 23 l 1,22,-1
 644 0 l 1,23,-1
 320 0 l 1,24,-1
 297 23 l 1,25,-1
 297 254 l 1,26,-1
 320 277 l 1,19,-1
EndSplineSet
Validated: 1
EndChar

StartChar: A
Encoding: 65 65 23
Width: 958
Flags: W
LayerCount: 2
Fore
SplineSet
296 1431 m 1,0,-1
 674 1431 l 1,1,-1
 903 1213 l 1,2,-1
 903 22 l 1,3,-1
 880 -1 l 1,4,-1
 570 -1 l 1,5,-1
 548 22 l 1,6,-1
 548 263 l 1,7,-1
 410 263 l 1,8,-1
 410 22 l 1,9,-1
 387 -1 l 1,10,-1
 78 -1 l 1,11,-1
 55 22 l 1,12,-1
 55 1213 l 1,13,-1
 296 1431 l 1,0,-1
410 1156 m 1,14,-1
 410 549 l 1,15,-1
 548 549 l 1,16,-1
 548 1156 l 1,17,-1
 410 1156 l 1,14,-1
EndSplineSet
Validated: 1
EndChar

StartChar: B
Encoding: 66 66 24
Width: 956
Flags: W
LayerCount: 2
Fore
SplineSet
73 1431 m 1,0,-1
 640 1431 l 2,1,2
 688 1431 688 1431 865 1242 c 1,3,-1
 865 882 l 1,4,5
 729 738 729 738 703 738 c 1,6,-1
 901 585 l 1,7,-1
 901 216 l 1,8,9
 685 0 685 0 640 0 c 2,10,-1
 73 0 l 1,11,-1
 55 18 l 1,12,-1
 55 1413 l 1,13,-1
 73 1431 l 1,0,-1
406 1143 m 1,14,-1
 406 864 l 1,15,-1
 550 864 l 1,16,-1
 550 1143 l 1,17,-1
 532 1161 l 1,18,-1
 424 1161 l 1,19,-1
 406 1143 l 1,14,-1
406 585 m 1,20,-1
 406 270 l 1,21,-1
 550 270 l 1,22,-1
 550 585 l 1,23,-1
 406 585 l 1,20,-1
EndSplineSet
Validated: 1
EndChar

StartChar: C
Encoding: 67 67 25
Width: 999
Flags: W
LayerCount: 2
Fore
SplineSet
297 1431 m 5,0,-1
 690 1431 l 5,1,2
 916 1254 916 1254 944 1212 c 5,3,-1
 944 900 l 5,4,-1
 921 877 l 5,5,-1
 597 877 l 5,6,-1
 574 900 l 5,7,-1
 574 1154 l 5,8,-1
 424 1154 l 5,9,-1
 424 277 l 5,10,-1
 574 277 l 5,11,-1
 574 589 l 5,12,-1
 597 612 l 5,13,-1
 921 612 l 5,14,-1
 944 589 l 5,15,-1
 944 219 l 5,16,17
 909 169 909 169 690 0 c 5,18,-1
 320 0 l 5,19,20
 78 181 78 181 55 219 c 5,21,-1
 55 1212 l 5,22,-1
 297 1431 l 5,0,-1
EndSplineSet
Validated: 1
EndChar

StartChar: D
Encoding: 68 68 26
Width: 956
Flags: W
LayerCount: 2
Fore
SplineSet
73 1431 m 5,0,-1
 631 1431 l 6,1,2
 682 1431 682 1431 901 1206 c 5,3,-1
 901 243 l 6,4,5
 901 196 901 196 667 0 c 5,6,-1
 73 0 l 5,7,-1
 55 18 l 5,8,-1
 55 1413 l 5,9,-1
 73 1431 l 5,0,-1
406 1161 m 5,10,-1
 406 270 l 5,11,-1
 541 270 l 5,12,-1
 541 1161 l 5,13,-1
 406 1161 l 5,10,-1
EndSplineSet
Validated: 1
EndChar

StartChar: E
Encoding: 69 69 27
Width: 752
Flags: W
LayerCount: 2
Fore
SplineSet
78 1432 m 5,0,-1
 663 1432 l 5,1,-1
 686 1410 l 5,2,-1
 686 1185 l 5,3,-1
 663 1162 l 5,4,-1
 404 1162 l 5,5,-1
 404 903 l 5,6,-1
 618 903 l 5,7,-1
 641 881 l 5,8,-1
 641 644 l 5,9,-1
 618 622 l 5,10,-1
 404 622 l 5,11,-1
 404 284 l 5,12,-1
 674 284 l 5,13,-1
 697 261 l 5,14,-1
 697 25 l 5,15,-1
 674 2 l 5,16,-1
 78 2 l 5,17,-1
 55 25 l 5,18,-1
 55 1410 l 5,19,-1
 78 1432 l 5,0,-1
EndSplineSet
Validated: 1
EndChar

StartChar: F
Encoding: 70 70 28
Width: 825
Flags: W
LayerCount: 2
Fore
SplineSet
78 1431 m 1,0,-1
 747 1431 l 1,1,-1
 771 1408 l 1,2,-1
 771 1177 l 1,3,-1
 747 1154 l 1,4,-1
 424 1154 l 1,5,-1
 424 912 l 1,6,-1
 447 889 l 1,7,-1
 690 889 l 1,8,-1
 713 866 l 1,9,-1
 713 646 l 1,10,-1
 690 623 l 1,11,-1
 424 623 l 1,12,-1
 424 23 l 1,13,-1
 401 0 l 1,14,-1
 78 0 l 1,15,-1
 55 23 l 1,16,-1
 55 1408 l 1,17,-1
 78 1431 l 1,0,-1
EndSplineSet
Validated: 1
EndChar

StartChar: G
Encoding: 71 71 29
Width: 955
Flags: W
LayerCount: 2
Fore
SplineSet
280 1432 m 1,0,-1
 674 1432 l 1,1,-1
 900 1230 l 1,2,-1
 900 914 l 1,3,-1
 877 892 l 1,4,-1
 573 892 l 1,5,-1
 551 914 l 1,6,-1
 551 1162 l 1,7,-1
 404 1162 l 1,8,-1
 404 284 l 1,9,-1
 551 284 l 1,10,-1
 551 486 l 1,11,-1
 494 486 l 1,12,-1
 472 509 l 1,13,-1
 472 734 l 1,14,-1
 494 757 l 1,15,-1
 877 757 l 1,16,-1
 900 734 l 1,17,-1
 900 216 l 1,18,-1
 663 2 l 1,19,-1
 303 2 l 1,20,21
 96 171 96 171 55 227 c 1,22,-1
 55 1218 l 1,23,-1
 280 1432 l 1,0,-1
EndSplineSet
Validated: 1
EndChar

StartChar: H
Encoding: 72 72 30
Width: 999
Flags: W
LayerCount: 2
Fore
SplineSet
78 1431 m 1,0,-1
 401 1431 l 1,1,-1
 424 1408 l 1,2,-1
 424 854 l 1,3,-1
 574 854 l 1,4,-1
 574 1408 l 1,5,-1
 597 1431 l 1,6,-1
 921 1431 l 1,7,-1
 944 1408 l 1,8,-1
 944 23 l 1,9,-1
 921 0 l 1,10,-1
 597 0 l 1,11,-1
 574 23 l 1,12,-1
 574 577 l 1,13,-1
 424 577 l 1,14,-1
 424 23 l 1,15,-1
 401 0 l 1,16,-1
 78 0 l 1,17,-1
 55 23 l 1,18,-1
 55 1408 l 1,19,-1
 78 1431 l 1,0,-1
EndSplineSet
Validated: 1
EndChar

StartChar: I
Encoding: 73 73 31
Width: 465
Flags: W
LayerCount: 2
Fore
SplineSet
78 1431 m 5,0,-1
 387 1431 l 5,1,-1
 410 1408 l 5,2,-1
 410 22 l 5,3,-1
 387 -1 l 5,4,-1
 78 -1 l 5,5,-1
 55 22 l 5,6,-1
 55 1408 l 5,7,-1
 78 1431 l 5,0,-1
EndSplineSet
Validated: 1
EndChar

StartChar: J
Encoding: 74 74 32
Width: 941
Flags: W
LayerCount: 2
Fore
SplineSet
540 1431 m 1,0,-1
 863 1431 l 1,1,-1
 886 1408 l 1,2,-1
 886 208 l 1,3,-1
 644 0 l 1,4,-1
 309 0 l 1,5,-1
 55 219 l 1,6,-1
 55 554 l 1,7,-1
 78 577 l 1,8,-1
 378 577 l 1,9,-1
 401 554 l 1,10,-1
 401 277 l 1,11,-1
 517 277 l 1,12,-1
 517 1408 l 1,13,-1
 540 1431 l 1,0,-1
EndSplineSet
Validated: 1
EndChar

StartChar: K
Encoding: 75 75 33
Width: 1149
Flags: W
LayerCount: 2
Fore
SplineSet
78 1431 m 1,0,-1
 401 1431 l 1,1,-1
 424 1408 l 1,2,-1
 424 831 l 1,3,-1
 436 831 l 1,4,5
 657 1431 657 1431 690 1431 c 2,6,-1
 1024 1431 l 1,7,-1
 1036 1419 l 1,8,-1
 1047 1419 l 1,9,10
 736 785 736 785 736 750 c 1,11,-1
 1094 12 l 1,12,-1
 1082 0 l 1,13,-1
 713 0 l 2,14,15
 685 0 685 0 436 600 c 1,16,-1
 424 600 l 1,17,-1
 424 23 l 1,18,-1
 401 0 l 1,19,-1
 78 0 l 1,20,-1
 55 23 l 1,21,-1
 55 1408 l 1,22,-1
 78 1431 l 1,0,-1
EndSplineSet
Validated: 1
EndChar

StartChar: L
Encoding: 76 76 34
Width: 814
Flags: W
LayerCount: 2
Fore
SplineSet
78 1431 m 1,0,-1
 401 1431 l 1,1,-1
 424 1408 l 1,2,-1
 424 277 l 1,3,-1
 736 277 l 1,4,-1
 759 254 l 1,5,-1
 759 23 l 1,6,-1
 736 0 l 1,7,-1
 78 0 l 1,8,-1
 55 23 l 1,9,-1
 55 1408 l 1,10,-1
 78 1431 l 1,0,-1
EndSplineSet
Validated: 1
EndChar

StartChar: M
Encoding: 77 77 35
Width: 1208
Flags: W
LayerCount: 2
Fore
SplineSet
78 1429 m 1,0,-1
 455 1429 l 2,1,2
 478 1429 478 1429 593 743 c 1,3,-1
 627 743 l 1,4,-1
 627 755 l 1,5,6
 718 1429 718 1429 753 1429 c 2,7,-1
 1130 1429 l 1,8,-1
 1153 1407 l 1,9,-1
 1153 22 l 1,10,-1
 1130 0 l 1,11,-1
 844 0 l 1,12,-1
 821 22 l 1,13,-1
 821 903 l 1,14,-1
 810 903 l 1,15,16
 680 0 680 0 650 0 c 2,17,-1
 558 0 l 2,18,19
 528 0 528 0 387 903 c 1,20,-1
 375 903 l 1,21,-1
 375 22 l 1,22,-1
 352 0 l 1,23,-1
 78 0 l 1,24,-1
 55 22 l 1,25,-1
 55 1407 l 1,26,-1
 78 1429 l 1,0,-1
EndSplineSet
Validated: 1
EndChar

StartChar: N
Encoding: 78 78 36
Width: 1010
Flags: W
LayerCount: 2
Fore
SplineSet
78 1431 m 1,0,-1
 355 1431 l 2,1,2
 382 1431 382 1431 586 773 c 1,3,-1
 597 773 l 1,4,-1
 597 1408 l 1,5,-1
 620 1431 l 1,6,-1
 932 1431 l 1,7,-1
 955 1408 l 1,8,-1
 955 23 l 1,9,-1
 932 0 l 1,10,-1
 655 0 l 2,11,12
 632 0 632 0 413 681 c 1,13,-1
 401 681 l 1,14,-1
 401 23 l 1,15,-1
 378 0 l 1,16,-1
 78 0 l 1,17,-1
 55 23 l 1,18,-1
 55 1408 l 1,19,-1
 78 1431 l 1,0,-1
EndSplineSet
Validated: 1
EndChar

StartChar: O
Encoding: 79 79 37
Width: 999
Flags: W
LayerCount: 2
Fore
SplineSet
297 1431 m 1,0,-1
 690 1431 l 1,1,-1
 944 1212 l 1,2,-1
 944 219 l 1,3,4
 874 134 874 134 701 0 c 1,5,-1
 297 0 l 1,6,7
 99 160 99 160 55 219 c 1,8,-1
 55 1212 l 1,9,-1
 297 1431 l 1,0,-1
424 1154 m 1,10,-1
 424 277 l 1,11,-1
 574 277 l 1,12,-1
 574 1154 l 1,13,-1
 424 1154 l 1,10,-1
EndSplineSet
Validated: 1
EndChar

StartChar: P
Encoding: 80 80 38
Width: 976
Flags: W
LayerCount: 2
Fore
SplineSet
78 1431 m 1,0,-1
 632 1431 l 2,1,2
 686 1431 686 1431 921 1212 c 1,3,-1
 921 704 l 1,4,5
 897 665 897 665 667 485 c 1,6,-1
 424 485 l 1,7,-1
 424 23 l 1,8,-1
 401 0 l 1,9,-1
 78 0 l 1,10,-1
 55 23 l 1,11,-1
 55 1408 l 1,12,-1
 78 1431 l 1,0,-1
424 1154 m 1,13,-1
 424 762 l 1,14,-1
 563 762 l 1,15,-1
 563 1154 l 1,16,-1
 424 1154 l 1,13,-1
EndSplineSet
Validated: 1
EndChar

StartChar: Q
Encoding: 81 81 39
Width: 1010
Flags: W
LayerCount: 2
Fore
SplineSet
297 1431 m 1,0,-1
 701 1431 l 1,1,2
 909 1273 909 1273 955 1212 c 1,3,-1
 955 312 l 1,4,-1
 794 162 l 1,5,-1
 932 162 l 1,6,-1
 955 138 l 1,7,-1
 955 23 l 1,8,-1
 932 0 l 1,9,-1
 297 0 l 1,10,-1
 55 208 l 1,11,-1
 55 1223 l 1,12,-1
 297 1431 l 1,0,-1
424 1154 m 1,13,-1
 424 277 l 1,14,-1
 586 277 l 1,15,-1
 586 1154 l 1,16,-1
 424 1154 l 1,13,-1
EndSplineSet
Validated: 1
EndChar

StartChar: R
Encoding: 82 82 40
Width: 944
Flags: W
LayerCount: 2
Fore
SplineSet
78 1429 m 5,0,-1
 641 1429 l 5,1,2
 749 1355 749 1355 888 1204 c 5,3,-1
 888 855 l 5,4,-1
 720 709 l 5,5,-1
 888 562 l 5,6,-1
 888 22 l 5,7,-1
 866 -1 l 5,8,-1
 573 -1 l 5,9,-1
 551 22 l 5,10,-1
 551 551 l 5,11,-1
 528 573 l 5,12,-1
 404 573 l 5,13,-1
 404 22 l 5,14,-1
 382 -1 l 5,15,-1
 78 -1 l 5,16,-1
 55 22 l 5,17,-1
 55 1407 l 5,18,-1
 78 1429 l 5,0,-1
404 1159 m 5,19,-1
 404 844 l 5,20,-1
 551 844 l 5,21,-1
 551 1159 l 5,22,-1
 404 1159 l 5,19,-1
EndSplineSet
Validated: 1
EndChar

StartChar: S
Encoding: 83 83 41
Width: 947
Flags: W
LayerCount: 2
Fore
SplineSet
289 1431 m 5,0,-1
 649 1431 l 5,1,2
 873 1247 873 1247 892 1215 c 5,3,-1
 892 981 l 5,4,-1
 874 963 l 5,5,-1
 559 963 l 5,6,-1
 541 981 l 5,7,-1
 541 1161 l 5,8,-1
 406 1161 l 5,9,-1
 406 873 l 5,10,-1
 658 855 l 5,11,-1
 892 639 l 5,12,-1
 892 207 l 5,13,14
 681 0 681 0 640 0 c 6,15,-1
 289 0 l 5,16,-1
 55 216 l 5,17,-1
 55 441 l 5,18,-1
 73 459 l 5,19,-1
 388 459 l 5,20,-1
 406 441 l 5,21,-1
 406 270 l 5,22,-1
 541 270 l 5,23,-1
 541 567 l 5,24,25
 273 567 273 567 226 648 c 5,26,-1
 55 801 l 5,27,-1
 55 1215 l 5,28,-1
 289 1431 l 5,0,-1
EndSplineSet
Validated: 1
EndChar

StartChar: T
Encoding: 84 84 42
Width: 842
Flags: W
LayerCount: 2
Fore
SplineSet
78 1431 m 5,0,-1
 765 1431 l 5,1,-1
 787 1409 l 5,2,-1
 787 1172 l 5,3,-1
 765 1150 l 5,4,-1
 596 1150 l 5,5,-1
 596 12 l 5,6,-1
 573 -10 l 5,7,-1
 269 -10 l 5,8,-1
 246 12 l 5,9,-1
 246 1150 l 5,10,-1
 78 1150 l 5,11,-1
 55 1172 l 5,12,-1
 55 1409 l 5,13,-1
 78 1431 l 5,0,-1
EndSplineSet
Validated: 1
EndChar

StartChar: U
Encoding: 85 85 43
Width: 956
Flags: W
LayerCount: 2
Fore
SplineSet
73 1431 m 5,0,-1
 388 1431 l 5,1,-1
 406 1413 l 5,2,-1
 406 270 l 5,3,-1
 550 270 l 5,4,-1
 550 1413 l 5,5,-1
 568 1431 l 5,6,-1
 883 1431 l 5,7,-1
 901 1413 l 5,8,-1
 901 216 l 5,9,10
 777 83 777 83 667 0 c 5,11,-1
 289 0 l 5,12,13
 95 164 95 164 55 216 c 5,14,-1
 55 1413 l 5,15,-1
 73 1431 l 5,0,-1
EndSplineSet
Validated: 1
EndChar

StartChar: V
Encoding: 86 86 44
Width: 1068
Flags: W
LayerCount: 2
Fore
SplineSet
413 1431 m 2,0,1
 447 1431 447 1431 505 577 c 1,2,3
 528 577 528 577 528 346 c 1,4,-1
 551 346 l 1,5,6
 632 1431 632 1431 667 1431 c 2,7,-1
 990 1431 l 1,8,-1
 1013 1408 l 1,9,10
 851 121 851 121 817 0 c 1,11,-1
 286 0 l 2,12,13
 251 0 251 0 159 785 c 1,14,-1
 55 1419 l 1,15,-1
 67 1431 l 1,16,-1
 413 1431 l 2,0,1
EndSplineSet
Validated: 1
EndChar

StartChar: W
Encoding: 87 87 45
Width: 1356
Flags: W
LayerCount: 2
Fore
SplineSet
78 1431 m 1,0,-1
 367 1431 l 2,1,2
 411 1431 411 1431 470 900 c 1,3,4
 494 900 494 900 494 750 c 1,5,6
 522 750 522 750 586 1396 c 1,7,-1
 620 1431 l 1,8,-1
 736 1431 l 2,9,10
 762 1431 762 1431 840 727 c 1,11,-1
 851 727 l 1,12,13
 940 1431 940 1431 978 1431 c 2,14,-1
 1278 1431 l 1,15,-1
 1301 1408 l 1,16,-1
 1036 12 l 1,17,-1
 1024 0 l 1,18,-1
 782 0 l 2,19,20
 756 0 756 0 690 612 c 1,21,-1
 655 612 l 1,22,-1
 655 600 l 1,23,24
 592 0 592 0 563 0 c 2,25,-1
 332 0 l 2,26,27
 295 0 295 0 90 1200 c 1,28,29
 55 1278 55 1278 55 1396 c 2,30,-1
 55 1408 l 1,31,-1
 78 1431 l 1,0,-1
EndSplineSet
Validated: 1
EndChar

StartChar: X
Encoding: 88 88 46
Width: 1137
Flags: W
LayerCount: 2
Fore
SplineSet
424 1431 m 2,0,1
 455 1431 455 1431 551 1050 c 1,2,-1
 574 1050 l 1,3,4
 667 1431 667 1431 701 1431 c 2,5,-1
 1036 1431 l 1,6,-1
 1047 1419 l 1,7,-1
 1059 1419 l 1,8,-1
 782 750 l 1,9,-1
 1082 12 l 1,10,-1
 1071 0 l 1,11,-1
 724 0 l 1,12,13
 694 30 694 30 563 404 c 1,14,-1
 551 404 l 1,15,16
 444 0 444 0 413 0 c 2,17,-1
 78 0 l 1,18,-1
 67 12 l 1,19,-1
 55 12 l 1,20,-1
 355 739 l 1,21,-1
 67 1419 l 1,22,-1
 78 1431 l 1,23,-1
 424 1431 l 2,0,1
EndSplineSet
Validated: 1
EndChar

StartChar: Y
Encoding: 89 89 47
Width: 1102
Flags: W
LayerCount: 2
Fore
SplineSet
55 1431 m 5,0,-1
 401 1431 l 6,1,2
 432 1431 432 1431 540 923 c 5,3,-1
 551 923 l 5,4,5
 667 1431 667 1431 701 1431 c 6,6,-1
 1024 1431 l 5,7,-1
 1036 1419 l 5,8,-1
 1047 1419 l 5,9,-1
 736 589 l 5,10,-1
 736 23 l 5,11,-1
 713 0 l 5,12,-1
 378 0 l 5,13,-1
 355 23 l 5,14,-1
 355 577 l 5,15,-1
 55 1419 l 5,16,-1
 55 1431 l 5,0,-1
EndSplineSet
Validated: 1
EndChar

StartChar: Z
Encoding: 90 90 48
Width: 966
Flags: W
LayerCount: 2
Fore
SplineSet
95 1431 m 1,0,-1
 900 1431 l 1,1,2
 892 1207 892 1207 892 1166 c 1,3,-1
 496 277 l 1,4,-1
 888 277 l 1,5,-1
 911 254 l 1,6,-1
 911 23 l 1,7,-1
 888 0 l 1,8,-1
 55 0 l 1,9,-1
 57 242 l 1,10,-1
 57 265 l 1,11,-1
 453 1154 l 1,12,-1
 95 1154 l 1,13,-1
 72 1177 l 1,14,-1
 72 1408 l 1,15,-1
 95 1431 l 1,0,-1
EndSplineSet
Validated: 1
EndChar

StartChar: a
Encoding: 97 97 49
Width: 958
Flags: W
LayerCount: 2
Fore
SplineSet
296 1431 m 5,0,-1
 674 1431 l 5,1,-1
 903 1213 l 5,2,-1
 903 22 l 5,3,-1
 880 -1 l 5,4,-1
 570 -1 l 5,5,-1
 548 22 l 5,6,-1
 548 263 l 5,7,-1
 410 263 l 5,8,-1
 410 22 l 5,9,-1
 387 -1 l 5,10,-1
 78 -1 l 5,11,-1
 55 22 l 5,12,-1
 55 1213 l 5,13,-1
 296 1431 l 5,0,-1
410 1156 m 5,14,-1
 410 549 l 5,15,-1
 548 549 l 5,16,-1
 548 1156 l 5,17,-1
 410 1156 l 5,14,-1
EndSplineSet
Validated: 1
EndChar

StartChar: b
Encoding: 98 98 50
Width: 956
Flags: W
LayerCount: 2
Fore
SplineSet
73 1431 m 1,0,-1
 640 1431 l 2,1,2
 688 1431 688 1431 865 1242 c 1,3,-1
 865 882 l 1,4,5
 729 738 729 738 703 738 c 1,6,-1
 901 585 l 1,7,-1
 901 216 l 1,8,9
 685 0 685 0 640 0 c 2,10,-1
 73 0 l 1,11,-1
 55 18 l 1,12,-1
 55 1413 l 1,13,-1
 73 1431 l 1,0,-1
406 1143 m 1,14,-1
 406 864 l 1,15,-1
 550 864 l 1,16,-1
 550 1143 l 1,17,-1
 532 1161 l 1,18,-1
 424 1161 l 1,19,-1
 406 1143 l 1,14,-1
406 585 m 1,20,-1
 406 270 l 1,21,-1
 550 270 l 1,22,-1
 550 585 l 1,23,-1
 406 585 l 1,20,-1
EndSplineSet
Validated: 1
EndChar

StartChar: c
Encoding: 99 99 51
Width: 999
Flags: W
LayerCount: 2
Fore
SplineSet
297 1431 m 1,0,-1
 690 1431 l 1,1,2
 916 1254 916 1254 944 1212 c 1,3,-1
 944 900 l 1,4,-1
 921 877 l 1,5,-1
 597 877 l 1,6,-1
 574 900 l 1,7,-1
 574 1154 l 1,8,-1
 424 1154 l 1,9,-1
 424 277 l 1,10,-1
 574 277 l 1,11,-1
 574 589 l 1,12,-1
 597 612 l 1,13,-1
 921 612 l 1,14,-1
 944 589 l 1,15,-1
 944 219 l 1,16,17
 909 169 909 169 690 0 c 1,18,-1
 320 0 l 1,19,20
 78 181 78 181 55 219 c 1,21,-1
 55 1212 l 1,22,-1
 297 1431 l 1,0,-1
EndSplineSet
Validated: 1
EndChar

StartChar: d
Encoding: 100 100 52
Width: 956
Flags: W
LayerCount: 2
Fore
SplineSet
73 1431 m 1,0,-1
 631 1431 l 2,1,2
 682 1431 682 1431 901 1206 c 1,3,-1
 901 243 l 2,4,5
 901 196 901 196 667 0 c 1,6,-1
 73 0 l 1,7,-1
 55 18 l 1,8,-1
 55 1413 l 1,9,-1
 73 1431 l 1,0,-1
406 1161 m 1,10,-1
 406 270 l 1,11,-1
 541 270 l 1,12,-1
 541 1161 l 1,13,-1
 406 1161 l 1,10,-1
EndSplineSet
Validated: 1
EndChar

StartChar: e
Encoding: 101 101 53
Width: 752
Flags: W
LayerCount: 2
Fore
SplineSet
78 1432 m 1,0,-1
 663 1432 l 1,1,-1
 686 1410 l 1,2,-1
 686 1185 l 1,3,-1
 663 1162 l 1,4,-1
 404 1162 l 1,5,-1
 404 903 l 1,6,-1
 618 903 l 1,7,-1
 641 881 l 1,8,-1
 641 644 l 1,9,-1
 618 622 l 1,10,-1
 404 622 l 1,11,-1
 404 284 l 1,12,-1
 674 284 l 1,13,-1
 697 261 l 1,14,-1
 697 25 l 1,15,-1
 674 2 l 1,16,-1
 78 2 l 1,17,-1
 55 25 l 1,18,-1
 55 1410 l 1,19,-1
 78 1432 l 1,0,-1
EndSplineSet
Validated: 1
EndChar

StartChar: f
Encoding: 102 102 54
Width: 825
Flags: W
LayerCount: 2
Fore
SplineSet
78 1431 m 1,0,-1
 747 1431 l 1,1,-1
 771 1408 l 1,2,-1
 771 1177 l 1,3,-1
 747 1154 l 1,4,-1
 424 1154 l 1,5,-1
 424 912 l 1,6,-1
 447 889 l 1,7,-1
 690 889 l 1,8,-1
 713 866 l 1,9,-1
 713 646 l 1,10,-1
 690 623 l 1,11,-1
 424 623 l 1,12,-1
 424 23 l 1,13,-1
 401 0 l 1,14,-1
 78 0 l 1,15,-1
 55 23 l 1,16,-1
 55 1408 l 1,17,-1
 78 1431 l 1,0,-1
EndSplineSet
Validated: 1
EndChar

StartChar: g
Encoding: 103 103 55
Width: 955
Flags: W
LayerCount: 2
Fore
SplineSet
280 1432 m 1,0,-1
 674 1432 l 1,1,-1
 900 1230 l 1,2,-1
 900 914 l 1,3,-1
 877 892 l 1,4,-1
 573 892 l 1,5,-1
 551 914 l 1,6,-1
 551 1162 l 1,7,-1
 404 1162 l 1,8,-1
 404 284 l 1,9,-1
 551 284 l 1,10,-1
 551 486 l 1,11,-1
 494 486 l 1,12,-1
 472 509 l 1,13,-1
 472 734 l 1,14,-1
 494 757 l 1,15,-1
 877 757 l 1,16,-1
 900 734 l 1,17,-1
 900 216 l 1,18,-1
 663 2 l 1,19,-1
 303 2 l 1,20,21
 96 171 96 171 55 227 c 1,22,-1
 55 1218 l 1,23,-1
 280 1432 l 1,0,-1
EndSplineSet
Validated: 1
EndChar

StartChar: h
Encoding: 104 104 56
Width: 999
Flags: W
LayerCount: 2
Fore
SplineSet
78 1431 m 1,0,-1
 401 1431 l 1,1,-1
 424 1408 l 1,2,-1
 424 854 l 1,3,-1
 574 854 l 1,4,-1
 574 1408 l 1,5,-1
 597 1431 l 1,6,-1
 921 1431 l 1,7,-1
 944 1408 l 1,8,-1
 944 23 l 1,9,-1
 921 0 l 1,10,-1
 597 0 l 1,11,-1
 574 23 l 1,12,-1
 574 577 l 1,13,-1
 424 577 l 1,14,-1
 424 23 l 1,15,-1
 401 0 l 1,16,-1
 78 0 l 1,17,-1
 55 23 l 1,18,-1
 55 1408 l 1,19,-1
 78 1431 l 1,0,-1
EndSplineSet
Validated: 1
EndChar

StartChar: i
Encoding: 105 105 57
Width: 465
Flags: W
LayerCount: 2
Fore
SplineSet
78 1431 m 1,0,-1
 387 1431 l 1,1,-1
 410 1408 l 1,2,-1
 410 22 l 1,3,-1
 387 -1 l 1,4,-1
 78 -1 l 1,5,-1
 55 22 l 1,6,-1
 55 1408 l 1,7,-1
 78 1431 l 1,0,-1
EndSplineSet
Validated: 1
EndChar

StartChar: j
Encoding: 106 106 58
Width: 941
Flags: W
LayerCount: 2
Fore
SplineSet
540 1431 m 1,0,-1
 863 1431 l 1,1,-1
 886 1408 l 1,2,-1
 886 208 l 1,3,-1
 644 0 l 1,4,-1
 309 0 l 1,5,-1
 55 219 l 1,6,-1
 55 554 l 1,7,-1
 78 577 l 1,8,-1
 378 577 l 1,9,-1
 401 554 l 1,10,-1
 401 277 l 1,11,-1
 517 277 l 1,12,-1
 517 1408 l 1,13,-1
 540 1431 l 1,0,-1
EndSplineSet
Validated: 1
EndChar

StartChar: k
Encoding: 107 107 59
Width: 1149
Flags: W
LayerCount: 2
Fore
SplineSet
78 1431 m 1,0,-1
 401 1431 l 1,1,-1
 424 1408 l 1,2,-1
 424 831 l 1,3,-1
 436 831 l 1,4,5
 657 1431 657 1431 690 1431 c 2,6,-1
 1024 1431 l 1,7,-1
 1036 1419 l 1,8,-1
 1047 1419 l 1,9,10
 736 785 736 785 736 750 c 1,11,-1
 1094 12 l 1,12,-1
 1082 0 l 1,13,-1
 713 0 l 2,14,15
 685 0 685 0 436 600 c 1,16,-1
 424 600 l 1,17,-1
 424 23 l 1,18,-1
 401 0 l 1,19,-1
 78 0 l 1,20,-1
 55 23 l 1,21,-1
 55 1408 l 1,22,-1
 78 1431 l 1,0,-1
EndSplineSet
Validated: 1
EndChar

StartChar: l
Encoding: 108 108 60
Width: 814
Flags: W
LayerCount: 2
Fore
SplineSet
78 1431 m 1,0,-1
 401 1431 l 1,1,-1
 424 1408 l 1,2,-1
 424 277 l 1,3,-1
 736 277 l 1,4,-1
 759 254 l 1,5,-1
 759 23 l 1,6,-1
 736 0 l 1,7,-1
 78 0 l 1,8,-1
 55 23 l 1,9,-1
 55 1408 l 1,10,-1
 78 1431 l 1,0,-1
EndSplineSet
Validated: 1
EndChar

StartChar: m
Encoding: 109 109 61
Width: 1208
Flags: W
LayerCount: 2
Fore
SplineSet
78 1429 m 1,0,-1
 455 1429 l 2,1,2
 478 1429 478 1429 593 743 c 1,3,-1
 627 743 l 1,4,-1
 627 755 l 1,5,6
 718 1429 718 1429 753 1429 c 2,7,-1
 1130 1429 l 1,8,-1
 1153 1407 l 1,9,-1
 1153 22 l 1,10,-1
 1130 0 l 1,11,-1
 844 0 l 1,12,-1
 821 22 l 1,13,-1
 821 903 l 1,14,-1
 810 903 l 1,15,16
 680 0 680 0 650 0 c 2,17,-1
 558 0 l 2,18,19
 528 0 528 0 387 903 c 1,20,-1
 375 903 l 1,21,-1
 375 22 l 1,22,-1
 352 0 l 1,23,-1
 78 0 l 1,24,-1
 55 22 l 1,25,-1
 55 1407 l 1,26,-1
 78 1429 l 1,0,-1
EndSplineSet
Validated: 1
EndChar

StartChar: n
Encoding: 110 110 62
Width: 1010
Flags: W
LayerCount: 2
Fore
SplineSet
78 1431 m 5,0,-1
 355 1431 l 6,1,2
 382 1431 382 1431 586 773 c 5,3,-1
 597 773 l 5,4,-1
 597 1408 l 5,5,-1
 620 1431 l 5,6,-1
 932 1431 l 5,7,-1
 955 1408 l 5,8,-1
 955 23 l 5,9,-1
 932 0 l 5,10,-1
 655 0 l 6,11,12
 632 0 632 0 413 681 c 5,13,-1
 401 681 l 5,14,-1
 401 23 l 5,15,-1
 378 0 l 5,16,-1
 78 0 l 5,17,-1
 55 23 l 5,18,-1
 55 1408 l 5,19,-1
 78 1431 l 5,0,-1
EndSplineSet
Validated: 1
EndChar

StartChar: o
Encoding: 111 111 63
Width: 999
Flags: W
LayerCount: 2
Fore
SplineSet
297 1431 m 5,0,-1
 690 1431 l 5,1,-1
 944 1212 l 5,2,-1
 944 219 l 5,3,4
 874 134 874 134 701 0 c 5,5,-1
 297 0 l 5,6,7
 99 160 99 160 55 219 c 5,8,-1
 55 1212 l 5,9,-1
 297 1431 l 5,0,-1
424 1154 m 5,10,-1
 424 277 l 5,11,-1
 574 277 l 5,12,-1
 574 1154 l 5,13,-1
 424 1154 l 5,10,-1
EndSplineSet
Validated: 1
EndChar

StartChar: p
Encoding: 112 112 64
Width: 976
Flags: W
LayerCount: 2
Fore
SplineSet
78 1431 m 1,0,-1
 632 1431 l 2,1,2
 686 1431 686 1431 921 1212 c 1,3,-1
 921 704 l 1,4,5
 897 665 897 665 667 485 c 1,6,-1
 424 485 l 1,7,-1
 424 23 l 1,8,-1
 401 0 l 1,9,-1
 78 0 l 1,10,-1
 55 23 l 1,11,-1
 55 1408 l 1,12,-1
 78 1431 l 1,0,-1
424 1154 m 1,13,-1
 424 762 l 1,14,-1
 563 762 l 1,15,-1
 563 1154 l 1,16,-1
 424 1154 l 1,13,-1
EndSplineSet
Validated: 1
EndChar

StartChar: q
Encoding: 113 113 65
Width: 1010
Flags: W
LayerCount: 2
Fore
SplineSet
297 1431 m 1,0,-1
 701 1431 l 1,1,2
 909 1273 909 1273 955 1212 c 1,3,-1
 955 312 l 1,4,-1
 794 162 l 1,5,-1
 932 162 l 1,6,-1
 955 138 l 1,7,-1
 955 23 l 1,8,-1
 932 0 l 1,9,-1
 297 0 l 1,10,-1
 55 208 l 1,11,-1
 55 1223 l 1,12,-1
 297 1431 l 1,0,-1
424 1154 m 1,13,-1
 424 277 l 1,14,-1
 586 277 l 1,15,-1
 586 1154 l 1,16,-1
 424 1154 l 1,13,-1
EndSplineSet
Validated: 1
EndChar

StartChar: r
Encoding: 114 114 66
Width: 944
Flags: W
LayerCount: 2
Fore
SplineSet
78 1429 m 1,0,-1
 641 1429 l 1,1,2
 749 1355 749 1355 888 1204 c 1,3,-1
 888 855 l 1,4,-1
 720 709 l 1,5,-1
 888 562 l 1,6,-1
 888 22 l 1,7,-1
 866 -1 l 1,8,-1
 573 -1 l 1,9,-1
 551 22 l 1,10,-1
 551 551 l 1,11,-1
 528 573 l 1,12,-1
 404 573 l 1,13,-1
 404 22 l 1,14,-1
 382 -1 l 1,15,-1
 78 -1 l 1,16,-1
 55 22 l 1,17,-1
 55 1407 l 1,18,-1
 78 1429 l 1,0,-1
404 1159 m 1,19,-1
 404 844 l 1,20,-1
 551 844 l 1,21,-1
 551 1159 l 1,22,-1
 404 1159 l 1,19,-1
EndSplineSet
Validated: 1
EndChar

StartChar: s
Encoding: 115 115 67
Width: 947
Flags: W
LayerCount: 2
Fore
SplineSet
289 1431 m 1,0,-1
 649 1431 l 1,1,2
 873 1247 873 1247 892 1215 c 1,3,-1
 892 981 l 1,4,-1
 874 963 l 1,5,-1
 559 963 l 1,6,-1
 541 981 l 1,7,-1
 541 1161 l 1,8,-1
 406 1161 l 1,9,-1
 406 873 l 1,10,-1
 658 855 l 1,11,-1
 892 639 l 1,12,-1
 892 207 l 1,13,14
 681 0 681 0 640 0 c 2,15,-1
 289 0 l 1,16,-1
 55 216 l 1,17,-1
 55 441 l 1,18,-1
 73 459 l 1,19,-1
 388 459 l 1,20,-1
 406 441 l 1,21,-1
 406 270 l 1,22,-1
 541 270 l 1,23,-1
 541 567 l 1,24,25
 273 567 273 567 226 648 c 1,26,-1
 55 801 l 1,27,-1
 55 1215 l 1,28,-1
 289 1431 l 1,0,-1
EndSplineSet
Validated: 1
EndChar

StartChar: t
Encoding: 116 116 68
Width: 842
Flags: W
LayerCount: 2
Fore
SplineSet
78 1431 m 1,0,-1
 765 1431 l 1,1,-1
 787 1409 l 1,2,-1
 787 1172 l 1,3,-1
 765 1150 l 1,4,-1
 596 1150 l 1,5,-1
 596 12 l 1,6,-1
 573 -10 l 1,7,-1
 269 -10 l 1,8,-1
 246 12 l 1,9,-1
 246 1150 l 1,10,-1
 78 1150 l 1,11,-1
 55 1172 l 1,12,-1
 55 1409 l 1,13,-1
 78 1431 l 1,0,-1
EndSplineSet
Validated: 1
EndChar

StartChar: u
Encoding: 117 117 69
Width: 956
Flags: W
LayerCount: 2
Fore
SplineSet
73 1431 m 1,0,-1
 388 1431 l 1,1,-1
 406 1413 l 1,2,-1
 406 270 l 1,3,-1
 550 270 l 1,4,-1
 550 1413 l 1,5,-1
 568 1431 l 1,6,-1
 883 1431 l 1,7,-1
 901 1413 l 1,8,-1
 901 216 l 1,9,10
 777 83 777 83 667 0 c 1,11,-1
 289 0 l 1,12,13
 95 164 95 164 55 216 c 1,14,-1
 55 1413 l 1,15,-1
 73 1431 l 1,0,-1
EndSplineSet
Validated: 1
EndChar

StartChar: v
Encoding: 118 118 70
Width: 1068
Flags: W
LayerCount: 2
Fore
SplineSet
413 1431 m 2,0,1
 447 1431 447 1431 505 577 c 1,2,3
 528 577 528 577 528 346 c 1,4,-1
 551 346 l 1,5,6
 632 1431 632 1431 667 1431 c 2,7,-1
 990 1431 l 1,8,-1
 1013 1408 l 1,9,10
 851 121 851 121 817 0 c 1,11,-1
 286 0 l 2,12,13
 251 0 251 0 159 785 c 1,14,-1
 55 1419 l 1,15,-1
 67 1431 l 1,16,-1
 413 1431 l 2,0,1
EndSplineSet
Validated: 1
EndChar

StartChar: w
Encoding: 119 119 71
Width: 1356
Flags: W
LayerCount: 2
Fore
SplineSet
78 1431 m 1,0,-1
 367 1431 l 2,1,2
 411 1431 411 1431 470 900 c 1,3,4
 494 900 494 900 494 750 c 1,5,6
 522 750 522 750 586 1396 c 1,7,-1
 620 1431 l 1,8,-1
 736 1431 l 2,9,10
 762 1431 762 1431 840 727 c 1,11,-1
 851 727 l 1,12,13
 940 1431 940 1431 978 1431 c 2,14,-1
 1278 1431 l 1,15,-1
 1301 1408 l 1,16,-1
 1036 12 l 1,17,-1
 1024 0 l 1,18,-1
 782 0 l 2,19,20
 756 0 756 0 690 612 c 1,21,-1
 655 612 l 1,22,-1
 655 600 l 1,23,24
 592 0 592 0 563 0 c 2,25,-1
 332 0 l 2,26,27
 295 0 295 0 90 1200 c 1,28,29
 55 1278 55 1278 55 1396 c 2,30,-1
 55 1408 l 1,31,-1
 78 1431 l 1,0,-1
EndSplineSet
Validated: 1
EndChar

StartChar: x
Encoding: 120 120 72
Width: 1137
Flags: W
LayerCount: 2
Fore
SplineSet
424 1431 m 2,0,1
 455 1431 455 1431 551 1050 c 1,2,-1
 574 1050 l 1,3,4
 667 1431 667 1431 701 1431 c 2,5,-1
 1036 1431 l 1,6,-1
 1047 1419 l 1,7,-1
 1059 1419 l 1,8,-1
 782 750 l 1,9,-1
 1082 12 l 1,10,-1
 1071 0 l 1,11,-1
 724 0 l 1,12,13
 694 30 694 30 563 404 c 1,14,-1
 551 404 l 1,15,16
 444 0 444 0 413 0 c 2,17,-1
 78 0 l 1,18,-1
 67 12 l 1,19,-1
 55 12 l 1,20,-1
 355 739 l 1,21,-1
 67 1419 l 1,22,-1
 78 1431 l 1,23,-1
 424 1431 l 2,0,1
EndSplineSet
Validated: 1
EndChar

StartChar: y
Encoding: 121 121 73
Width: 1102
Flags: W
LayerCount: 2
Fore
SplineSet
55 1431 m 1,0,-1
 401 1431 l 2,1,2
 432 1431 432 1431 540 923 c 1,3,-1
 551 923 l 1,4,5
 667 1431 667 1431 701 1431 c 2,6,-1
 1024 1431 l 1,7,-1
 1036 1419 l 1,8,-1
 1047 1419 l 1,9,-1
 736 589 l 1,10,-1
 736 23 l 1,11,-1
 713 0 l 1,12,-1
 378 0 l 1,13,-1
 355 23 l 1,14,-1
 355 577 l 1,15,-1
 55 1419 l 1,16,-1
 55 1431 l 1,0,-1
EndSplineSet
Validated: 1
EndChar

StartChar: z
Encoding: 122 122 74
Width: 966
Flags: W
LayerCount: 2
Fore
SplineSet
95 1431 m 5,0,-1
 900 1431 l 5,1,2
 892 1207 892 1207 892 1166 c 5,3,-1
 496 277 l 5,4,-1
 888 277 l 5,5,-1
 911 254 l 5,6,-1
 911 23 l 5,7,-1
 888 0 l 5,8,-1
 55 0 l 5,9,-1
 57 242 l 5,10,-1
 57 265 l 5,11,-1
 453 1154 l 5,12,-1
 95 1154 l 5,13,-1
 72 1177 l 5,14,-1
 72 1408 l 5,15,-1
 95 1431 l 5,0,-1
EndSplineSet
Validated: 1
EndChar

StartChar: afii10017
Encoding: 1040 1040 75
Width: 958
Flags: W
LayerCount: 2
Fore
SplineSet
296 1431 m 1,0,-1
 674 1431 l 1,1,-1
 903 1213 l 1,2,-1
 903 22 l 1,3,-1
 880 -1 l 1,4,-1
 570 -1 l 1,5,-1
 548 22 l 1,6,-1
 548 263 l 1,7,-1
 410 263 l 1,8,-1
 410 22 l 1,9,-1
 387 -1 l 1,10,-1
 78 -1 l 1,11,-1
 55 22 l 1,12,-1
 55 1213 l 1,13,-1
 296 1431 l 1,0,-1
410 1156 m 1,14,-1
 410 549 l 1,15,-1
 548 549 l 1,16,-1
 548 1156 l 1,17,-1
 410 1156 l 1,14,-1
EndSplineSet
Validated: 1
EndChar

StartChar: afii10018
Encoding: 1041 1041 76
Width: 976
Flags: W
LayerCount: 2
Fore
SplineSet
563 277 m 1,0,-1
 563 669 l 1,1,-1
 424 669 l 1,2,-1
 424 277 l 1,3,-1
 563 277 l 1,0,-1
876 1431 m 1,4,-1
 876 1064 l 1,5,-1
 772 1064 l 1,6,-1
 772 1206 l 1,7,-1
 424 1206 l 1,8,-1
 424 946 l 1,9,-1
 667 946 l 1,10,11
 897 766 897 766 921 727 c 1,12,-1
 921 219 l 1,13,14
 686 0 686 0 632 0 c 2,15,-1
 78 0 l 1,16,-1
 55 23 l 1,17,-1
 55 1408 l 1,18,-1
 78 1431 l 1,19,-1
 876 1431 l 1,4,-1
EndSplineSet
Validated: 1
EndChar

StartChar: afii10019
Encoding: 1042 1042 77
Width: 956
Flags: W
LayerCount: 2
Fore
SplineSet
73 1431 m 1,0,-1
 640 1431 l 2,1,2
 688 1431 688 1431 865 1242 c 1,3,-1
 865 882 l 1,4,5
 729 738 729 738 703 738 c 1,6,-1
 901 585 l 1,7,-1
 901 216 l 1,8,9
 685 0 685 0 640 0 c 2,10,-1
 73 0 l 1,11,-1
 55 18 l 1,12,-1
 55 1413 l 1,13,-1
 73 1431 l 1,0,-1
406 1143 m 1,14,-1
 406 864 l 1,15,-1
 550 864 l 1,16,-1
 550 1143 l 1,17,-1
 532 1161 l 1,18,-1
 424 1161 l 1,19,-1
 406 1143 l 1,14,-1
406 585 m 1,20,-1
 406 270 l 1,21,-1
 550 270 l 1,22,-1
 550 585 l 1,23,-1
 406 585 l 1,20,-1
EndSplineSet
Validated: 1
EndChar

StartChar: afii10020
Encoding: 1043 1043 78
Width: 827
Flags: W
LayerCount: 2
Fore
SplineSet
614 1154 m 1,0,-1
 424 1154 l 1,1,-1
 424 23 l 1,2,-1
 401 0 l 1,3,-1
 78 0 l 1,4,-1
 55 23 l 1,5,-1
 55 1408 l 1,6,-1
 78 1431 l 1,7,-1
 747 1431 l 1,8,-1
 771 1408 l 1,9,-1
 772 966 l 1,10,-1
 614 966 l 1,11,-1
 614 1154 l 1,0,-1
EndSplineSet
Validated: 1
EndChar

StartChar: afii10021
Encoding: 1044 1044 79
Width: 1317
Flags: W
LayerCount: 2
Fore
SplineSet
186 187 m 1,0,-1
 349 499 l 1,1,-1
 349 1139 l 1,2,-1
 189 1139 l 1,3,-1
 189 1431 l 1,4,-1
 1262 1431 l 1,5,-1
 1262 1139 l 1,6,-1
 1164 1139 l 1,7,-1
 1164 187 l 1,8,-1
 1208 187 l 1,9,-1
 1208 45 l 1,10,-1
 1209 45 l 1,11,-1
 1209 -322 l 1,12,-1
 954 -322 l 1,13,-1
 954 -1 l 1,14,-1
 832 -1 l 1,15,-1
 831 0 l 1,16,-1
 373 0 l 1,17,-1
 310 -1 l 1,18,-1
 310 -322 l 1,19,-1
 55 -322 l 1,20,-1
 55 187 l 1,21,-1
 186 187 l 1,0,-1
809 187 m 1,22,-1
 809 1139 l 1,23,-1
 704 1139 l 1,24,-1
 704 487 l 1,25,-1
 558 187 l 1,26,-1
 809 187 l 1,22,-1
EndSplineSet
Validated: 1
EndChar

StartChar: afii10022
Encoding: 1045 1045 80
Width: 752
Flags: W
LayerCount: 2
Fore
SplineSet
78 1432 m 1,0,-1
 663 1432 l 1,1,-1
 686 1410 l 1,2,-1
 686 1185 l 1,3,-1
 663 1162 l 1,4,-1
 404 1162 l 1,5,-1
 404 903 l 1,6,-1
 618 903 l 1,7,-1
 641 881 l 1,8,-1
 641 644 l 1,9,-1
 618 622 l 1,10,-1
 404 622 l 1,11,-1
 404 284 l 1,12,-1
 674 284 l 1,13,-1
 697 261 l 1,14,-1
 697 25 l 1,15,-1
 674 2 l 1,16,-1
 78 2 l 1,17,-1
 55 25 l 1,18,-1
 55 1410 l 1,19,-1
 78 1432 l 1,0,-1
EndSplineSet
Validated: 1
EndChar

StartChar: afii10024
Encoding: 1046 1046 81
Width: 1853
Flags: W
LayerCount: 2
Fore
SplineSet
1090 1431 m 1,0,-1
 1113 1408 l 1,1,-1
 1113 831 l 1,2,-1
 1125 831 l 1,3,4
 1346 1431 1346 1431 1379 1431 c 2,5,-1
 1798 1431 l 1,6,-1
 1798 1011 l 1,7,-1
 1588 1011 l 1,8,-1
 1588 1265 l 1,9,10
 1425 775 1425 775 1425 750 c 1,11,-1
 1783 12 l 1,12,-1
 1771 0 l 1,13,-1
 1402 0 l 2,14,15
 1374 0 1374 0 1125 600 c 1,16,-1
 1113 600 l 1,17,-1
 1113 23 l 1,18,-1
 1090 0 l 1,19,-1
 763 0 l 1,20,-1
 740 23 l 1,21,-1
 740 600 l 1,22,-1
 728 600 l 1,23,24
 479 0 479 0 451 0 c 2,25,-1
 82 0 l 1,26,-1
 70 12 l 1,27,-1
 428 750 l 1,28,29
 428 775 428 775 265 1265 c 1,30,-1
 265 1011 l 1,31,-1
 55 1011 l 1,32,-1
 55 1431 l 1,33,-1
 474 1431 l 2,34,35
 507 1431 507 1431 728 831 c 1,36,-1
 740 831 l 1,37,-1
 740 1408 l 1,38,-1
 763 1431 l 1,39,-1
 1090 1431 l 1,0,-1
EndSplineSet
Validated: 1
EndChar

StartChar: afii10025
Encoding: 1047 1047 82
Width: 994
Flags: W
LayerCount: 2
Fore
SplineSet
235 1272 m 1,0,-1
 372 1429 l 1,1,-1
 675 1429 l 1,2,-1
 939 1210 l 1,3,-1
 939 900 l 1,4,5
 867 813 867 813 732 739 c 1,6,-1
 732 727 l 1,7,-1
 939 555 l 1,8,-1
 939 221 l 1,9,-1
 686 2 l 1,10,-1
 295 2 l 1,11,-1
 65 221 l 1,12,-1
 65 440 l 1,13,-1
 88 463 l 1,14,-1
 399 463 l 1,15,-1
 422 440 l 1,16,-1
 422 279 l 1,17,-1
 560 279 l 1,18,-1
 560 589 l 1,19,-1
 387 589 l 1,20,-1
 364 612 l 1,21,-1
 364 842 l 1,22,-1
 387 865 l 1,23,-1
 560 865 l 1,24,-1
 560 1153 l 1,25,-1
 422 1153 l 1,26,-1
 422 1003 l 1,27,-1
 399 980 l 1,28,-1
 88 980 l 1,29,-1
 82 986 l 1,30,-1
 55 986 l 1,31,-1
 55 1432 l 1,32,-1
 235 1432 l 1,33,-1
 235 1272 l 1,0,-1
EndSplineSet
Validated: 1
EndChar

StartChar: afii10026
Encoding: 1048 1048 83
Width: 999
Flags: W
LayerCount: 2
Fore
SplineSet
78 1431 m 1,0,-1
 401 1431 l 1,1,-1
 424 1408 l 1,2,-1
 424 870 l 1,3,-1
 574 1300 l 1,4,-1
 574 1408 l 1,5,-1
 597 1431 l 1,6,-1
 921 1431 l 1,7,-1
 944 1408 l 1,8,-1
 944 23 l 1,9,-1
 921 0 l 1,10,-1
 597 0 l 1,11,-1
 574 23 l 1,12,-1
 574 684 l 1,13,-1
 424 102 l 1,14,-1
 424 23 l 1,15,-1
 401 0 l 1,16,-1
 78 0 l 1,17,-1
 55 23 l 1,18,-1
 55 1408 l 1,19,-1
 78 1431 l 1,0,-1
EndSplineSet
Validated: 1
EndChar

StartChar: afii10027
Encoding: 1049 1049 84
Width: 999
Flags: W
LayerCount: 2
Fore
SplineSet
78 1431 m 5,0,-1
 401 1431 l 5,1,-1
 424 1408 l 5,2,-1
 424 870 l 5,3,-1
 574 1300 l 5,4,-1
 574 1408 l 5,5,-1
 597 1431 l 5,6,-1
 921 1431 l 5,7,-1
 944 1408 l 5,8,-1
 944 23 l 5,9,-1
 921 0 l 5,10,-1
 597 0 l 5,11,-1
 574 23 l 5,12,-1
 574 684 l 5,13,-1
 424 102 l 5,14,-1
 424 23 l 5,15,-1
 401 0 l 5,16,-1
 78 0 l 5,17,-1
 55 23 l 5,18,-1
 55 1408 l 5,19,-1
 78 1431 l 5,0,-1
277 1725 m 5,20,-1
 277 1596 l 5,21,-1
 397 1498 l 5,22,-1
 674 1498 l 5,23,-1
 764 1618 l 5,24,-1
 764 1730 l 5,25,-1
 622 1730 l 5,26,-1
 622 1611 l 5,27,-1
 427 1611 l 5,28,-1
 427 1720 l 5,29,-1
 277 1725 l 5,20,-1
EndSplineSet
Validated: 9
EndChar

StartChar: afii10028
Encoding: 1050 1050 85
Width: 1164
Flags: W
LayerCount: 2
Fore
SplineSet
899 1265 m 1,0,1
 736 775 736 775 736 750 c 1,2,-1
 1094 12 l 1,3,-1
 1082 0 l 1,4,-1
 713 0 l 2,5,6
 685 0 685 0 436 600 c 1,7,-1
 424 600 l 1,8,-1
 424 23 l 1,9,-1
 401 0 l 1,10,-1
 78 0 l 1,11,-1
 55 23 l 1,12,-1
 55 1408 l 1,13,-1
 78 1431 l 1,14,-1
 401 1431 l 1,15,-1
 424 1408 l 1,16,-1
 424 831 l 1,17,-1
 436 831 l 1,18,19
 657 1431 657 1431 690 1431 c 2,20,-1
 1109 1431 l 1,21,-1
 1109 1011 l 1,22,-1
 899 1011 l 1,23,-1
 899 1265 l 1,0,1
EndSplineSet
Validated: 1
EndChar

StartChar: afii10029
Encoding: 1051 1051 86
Width: 1314
Flags: W
LayerCount: 2
Fore
SplineSet
233 260 m 1,0,-1
 346 499 l 1,1,-1
 346 1139 l 1,2,-1
 186 1139 l 1,3,-1
 186 1431 l 1,4,-1
 1259 1431 l 1,5,-1
 1259 1139 l 1,6,-1
 1161 1139 l 1,7,-1
 1161 22 l 1,8,-1
 1138 -1 l 1,9,-1
 829 -1 l 1,10,-1
 806 22 l 1,11,-1
 806 1139 l 1,12,-1
 701 1139 l 1,13,-1
 701 487 l 1,14,-1
 465 1 l 1,15,-1
 55 1 l 1,16,-1
 55 383 l 1,17,-1
 233 383 l 1,18,-1
 233 260 l 1,0,-1
EndSplineSet
Validated: 1
EndChar

StartChar: afii10030
Encoding: 1052 1052 87
Width: 1208
Flags: W
LayerCount: 2
Fore
SplineSet
78 1429 m 1,0,-1
 455 1429 l 2,1,2
 478 1429 478 1429 593 743 c 1,3,-1
 627 743 l 1,4,-1
 627 755 l 1,5,6
 718 1429 718 1429 753 1429 c 2,7,-1
 1130 1429 l 1,8,-1
 1153 1407 l 1,9,-1
 1153 22 l 1,10,-1
 1130 0 l 1,11,-1
 844 0 l 1,12,-1
 821 22 l 1,13,-1
 821 903 l 1,14,-1
 810 903 l 1,15,16
 680 0 680 0 650 0 c 2,17,-1
 558 0 l 2,18,19
 528 0 528 0 387 903 c 1,20,-1
 375 903 l 1,21,-1
 375 22 l 1,22,-1
 352 0 l 1,23,-1
 78 0 l 1,24,-1
 55 22 l 1,25,-1
 55 1407 l 1,26,-1
 78 1429 l 1,0,-1
EndSplineSet
Validated: 1
EndChar

StartChar: afii10031
Encoding: 1053 1053 88
Width: 999
Flags: W
LayerCount: 2
Fore
SplineSet
78 1431 m 1,0,-1
 401 1431 l 1,1,-1
 424 1408 l 1,2,-1
 424 854 l 1,3,-1
 574 854 l 1,4,-1
 574 1408 l 1,5,-1
 597 1431 l 1,6,-1
 921 1431 l 1,7,-1
 944 1408 l 1,8,-1
 944 23 l 1,9,-1
 921 0 l 1,10,-1
 597 0 l 1,11,-1
 574 23 l 1,12,-1
 574 577 l 1,13,-1
 424 577 l 1,14,-1
 424 23 l 1,15,-1
 401 0 l 1,16,-1
 78 0 l 1,17,-1
 55 23 l 1,18,-1
 55 1408 l 1,19,-1
 78 1431 l 1,0,-1
EndSplineSet
Validated: 1
EndChar

StartChar: afii10032
Encoding: 1054 1054 89
Width: 999
Flags: W
LayerCount: 2
Fore
SplineSet
297 1431 m 1,0,-1
 690 1431 l 1,1,-1
 944 1212 l 1,2,-1
 944 219 l 1,3,4
 874 134 874 134 701 0 c 1,5,-1
 297 0 l 1,6,7
 99 160 99 160 55 219 c 1,8,-1
 55 1212 l 1,9,-1
 297 1431 l 1,0,-1
424 1154 m 1,10,-1
 424 277 l 1,11,-1
 574 277 l 1,12,-1
 574 1154 l 1,13,-1
 424 1154 l 1,10,-1
EndSplineSet
Validated: 1
EndChar

StartChar: afii10033
Encoding: 1055 1055 90
Width: 1184
Flags: W
LayerCount: 2
Fore
SplineSet
510 1154 m 1,0,-1
 510 22 l 1,1,-1
 487 -1 l 1,2,-1
 178 -1 l 1,3,-1
 155 22 l 1,4,-1
 155 1154 l 1,5,-1
 55 1154 l 1,6,-1
 55 1431 l 1,7,-1
 1129 1431 l 1,8,-1
 1129 1154 l 1,9,-1
 1019 1154 l 1,10,-1
 1019 22 l 1,11,-1
 996 -1 l 1,12,-1
 687 -1 l 1,13,-1
 664 22 l 1,14,-1
 664 1154 l 1,15,-1
 510 1154 l 1,0,-1
EndSplineSet
Validated: 1
EndChar

StartChar: afii10034
Encoding: 1056 1056 91
Width: 976
Flags: W
LayerCount: 2
Fore
SplineSet
78 1431 m 1,0,-1
 632 1431 l 2,1,2
 686 1431 686 1431 921 1212 c 1,3,-1
 921 704 l 1,4,5
 897 665 897 665 667 485 c 1,6,-1
 424 485 l 1,7,-1
 424 23 l 1,8,-1
 401 0 l 1,9,-1
 78 0 l 1,10,-1
 55 23 l 1,11,-1
 55 1408 l 1,12,-1
 78 1431 l 1,0,-1
424 1154 m 1,13,-1
 424 762 l 1,14,-1
 563 762 l 1,15,-1
 563 1154 l 1,16,-1
 424 1154 l 1,13,-1
EndSplineSet
Validated: 1
EndChar

StartChar: afii10035
Encoding: 1057 1057 92
Width: 999
Flags: W
LayerCount: 2
Fore
SplineSet
297 1431 m 1,0,-1
 690 1431 l 1,1,2
 916 1254 916 1254 944 1212 c 1,3,-1
 944 900 l 1,4,-1
 921 877 l 1,5,-1
 597 877 l 1,6,-1
 574 900 l 1,7,-1
 574 1154 l 1,8,-1
 424 1154 l 1,9,-1
 424 277 l 1,10,-1
 574 277 l 1,11,-1
 574 589 l 1,12,-1
 597 612 l 1,13,-1
 921 612 l 1,14,-1
 944 589 l 1,15,-1
 944 219 l 1,16,17
 909 169 909 169 690 0 c 1,18,-1
 320 0 l 1,19,20
 78 181 78 181 55 219 c 1,21,-1
 55 1212 l 1,22,-1
 297 1431 l 1,0,-1
EndSplineSet
Validated: 1
EndChar

StartChar: afii10036
Encoding: 1058 1058 93
Width: 842
Flags: W
LayerCount: 2
Fore
SplineSet
78 1431 m 1,0,-1
 765 1431 l 1,1,-1
 787 1409 l 1,2,-1
 787 1172 l 1,3,-1
 765 1150 l 1,4,-1
 596 1150 l 1,5,-1
 596 12 l 1,6,-1
 573 -10 l 1,7,-1
 269 -10 l 1,8,-1
 246 12 l 1,9,-1
 246 1150 l 1,10,-1
 78 1150 l 1,11,-1
 55 1172 l 1,12,-1
 55 1409 l 1,13,-1
 78 1431 l 1,0,-1
EndSplineSet
Validated: 1
EndChar

StartChar: afii10037
Encoding: 1059 1059 94
Width: 1102
Flags: W
LayerCount: 2
Fore
SplineSet
206 210 m 1,0,-1
 355 577 l 1,1,-1
 55 1419 l 1,2,-1
 55 1431 l 1,3,-1
 401 1431 l 2,4,5
 432 1431 432 1431 540 923 c 1,6,-1
 551 923 l 1,7,8
 667 1431 667 1431 701 1431 c 2,9,-1
 1024 1431 l 1,10,-1
 1036 1419 l 1,11,-1
 1047 1419 l 1,12,-1
 736 589 l 1,13,-1
 511 23 l 1,14,-1
 488 0 l 1,15,-1
 60 -2 l 1,16,-1
 60 300 l 1,17,-1
 173 300 l 1,18,-1
 173 210 l 1,19,-1
 206 210 l 1,0,-1
EndSplineSet
Validated: 1
EndChar

StartChar: afii10038
Encoding: 1060 1060 95
Width: 1478
Flags: W
LayerCount: 2
Fore
SplineSet
926 840 m 1,0,-1
 926 448 l 1,1,-1
 1065 448 l 1,2,-1
 1065 840 l 1,3,-1
 926 840 l 1,0,-1
413 840 m 1,4,-1
 413 448 l 1,5,-1
 552 448 l 1,6,-1
 552 840 l 1,7,-1
 413 840 l 1,4,-1
926 1431 m 1,8,-1
 926 1117 l 1,9,-1
 1134 1117 l 2,10,11
 1188 1117 1188 1117 1423 898 c 1,12,-1
 1423 390 l 1,13,14
 1399 351 1399 351 1169 171 c 1,15,-1
 926 171 l 1,16,-1
 926 23 l 1,17,-1
 903 0 l 1,18,-1
 575 0 l 1,19,-1
 552 23 l 1,20,-1
 552 171 l 1,21,-1
 309 171 l 1,22,23
 79 351 79 351 55 390 c 1,24,-1
 55 898 l 1,25,26
 290 1117 290 1117 344 1117 c 2,27,-1
 552 1117 l 1,28,-1
 552 1431 l 1,29,-1
 926 1431 l 1,8,-1
EndSplineSet
Validated: 1
EndChar

StartChar: afii10039
Encoding: 1061 1061 96
Width: 1137
Flags: W
LayerCount: 2
Fore
SplineSet
424 1431 m 2,0,1
 455 1431 455 1431 551 1050 c 1,2,-1
 574 1050 l 1,3,4
 667 1431 667 1431 701 1431 c 2,5,-1
 1036 1431 l 1,6,-1
 1047 1419 l 1,7,-1
 1059 1419 l 1,8,-1
 782 750 l 1,9,-1
 1082 12 l 1,10,-1
 1071 0 l 1,11,-1
 724 0 l 1,12,13
 694 30 694 30 563 404 c 1,14,-1
 551 404 l 1,15,16
 444 0 444 0 413 0 c 2,17,-1
 78 0 l 1,18,-1
 67 12 l 1,19,-1
 55 12 l 1,20,-1
 355 739 l 1,21,-1
 67 1419 l 1,22,-1
 78 1431 l 1,23,-1
 424 1431 l 2,0,1
EndSplineSet
Validated: 1
EndChar

StartChar: afii10040
Encoding: 1062 1062 97
Width: 1142
Flags: W
LayerCount: 2
Fore
SplineSet
742 0 m 1,0,-1
 78 0 l 1,1,-1
 55 23 l 1,2,-1
 55 1408 l 1,3,-1
 78 1431 l 1,4,-1
 401 1431 l 1,5,-1
 424 1408 l 1,6,-1
 424 277 l 1,7,-1
 593 277 l 1,8,-1
 593 1408 l 1,9,-1
 616 1431 l 1,10,-1
 939 1431 l 1,11,-1
 962 1408 l 1,12,-1
 962 262 l 1,13,-1
 1087 262 l 1,14,-1
 1087 -262 l 1,15,-1
 742 -262 l 1,16,-1
 742 0 l 1,0,-1
EndSplineSet
Validated: 1
EndChar

StartChar: afii10041
Encoding: 1063 1063 98
Width: 999
Flags: W
LayerCount: 2
Fore
SplineSet
55 577 m 1,0,-1
 55 1408 l 1,1,-1
 78 1431 l 1,2,-1
 401 1431 l 1,3,-1
 424 1408 l 1,4,-1
 424 854 l 1,5,-1
 574 854 l 1,6,-1
 574 1408 l 1,7,-1
 597 1431 l 1,8,-1
 921 1431 l 1,9,-1
 944 1408 l 1,10,-1
 944 23 l 1,11,-1
 921 0 l 1,12,-1
 597 0 l 1,13,-1
 574 23 l 1,14,-1
 574 577 l 1,15,-1
 55 577 l 1,0,-1
EndSplineSet
Validated: 1
EndChar

StartChar: afii10042
Encoding: 1064 1064 99
Width: 1541
Flags: W
LayerCount: 2
Fore
SplineSet
78 0 m 1,0,-1
 55 23 l 1,1,-1
 55 1408 l 1,2,-1
 78 1431 l 1,3,-1
 401 1431 l 1,4,-1
 424 1408 l 1,5,-1
 424 277 l 1,6,-1
 586 277 l 1,7,-1
 586 1408 l 1,8,-1
 609 1431 l 1,9,-1
 932 1431 l 1,10,-1
 955 1408 l 1,11,-1
 955 277 l 1,12,-1
 1117 277 l 1,13,-1
 1117 1408 l 1,14,-1
 1140 1431 l 1,15,-1
 1463 1431 l 1,16,-1
 1486 1408 l 1,17,-1
 1486 23 l 1,18,-1
 1463 0 l 1,19,-1
 78 0 l 1,0,-1
EndSplineSet
Validated: 1
EndChar

StartChar: afii10043
Encoding: 1065 1065 100
Width: 1666
Flags: W
LayerCount: 2
Fore
SplineSet
1266 0 m 1,0,-1
 78 0 l 1,1,-1
 55 23 l 1,2,-1
 55 1408 l 1,3,-1
 78 1431 l 1,4,-1
 401 1431 l 1,5,-1
 424 1408 l 1,6,-1
 424 277 l 1,7,-1
 586 277 l 1,8,-1
 586 1408 l 1,9,-1
 609 1431 l 1,10,-1
 932 1431 l 1,11,-1
 955 1408 l 1,12,-1
 955 277 l 1,13,-1
 1117 277 l 1,14,-1
 1117 1408 l 1,15,-1
 1140 1431 l 1,16,-1
 1463 1431 l 1,17,-1
 1486 1408 l 1,18,-1
 1486 262 l 1,19,-1
 1611 262 l 1,20,-1
 1611 -262 l 1,21,-1
 1266 -262 l 1,22,-1
 1266 0 l 1,0,-1
EndSplineSet
Validated: 1
EndChar

StartChar: afii10044
Encoding: 1066 1066 101
Width: 1196
Flags: W
LayerCount: 2
Fore
SplineSet
783 277 m 1,0,-1
 783 669 l 1,1,-1
 644 669 l 1,2,-1
 644 277 l 1,3,-1
 783 277 l 1,0,-1
621 1431 m 1,4,-1
 644 1408 l 1,5,-1
 644 946 l 1,6,-1
 887 946 l 1,7,8
 1117 766 1117 766 1141 727 c 1,9,-1
 1141 219 l 1,10,11
 906 0 906 0 852 0 c 2,12,-1
 298 0 l 1,13,-1
 275 23 l 1,14,-1
 275 1228 l 1,15,-1
 55 1228 l 1,16,-1
 55 1431 l 1,17,-1
 621 1431 l 1,4,-1
EndSplineSet
Validated: 1
EndChar

StartChar: afii10045
Encoding: 1067 1067 102
Width: 1419
Flags: W
LayerCount: 2
Fore
SplineSet
55 23 m 1,0,-1
 55 1408 l 1,1,-1
 78 1431 l 1,2,-1
 401 1431 l 1,3,-1
 424 1408 l 1,4,-1
 424 946 l 1,5,-1
 667 946 l 1,6,7
 897 766 897 766 921 727 c 1,8,-1
 921 219 l 1,9,10
 686 0 686 0 632 0 c 2,11,-1
 78 0 l 1,12,-1
 55 23 l 1,0,-1
563 277 m 1,13,-1
 563 669 l 1,14,-1
 424 669 l 1,15,-1
 424 277 l 1,16,-1
 563 277 l 1,13,-1
1032 1431 m 1,17,-1
 1341 1431 l 1,18,-1
 1364 1408 l 1,19,-1
 1364 22 l 1,20,-1
 1341 -1 l 1,21,-1
 1032 -1 l 1,22,-1
 1009 22 l 1,23,-1
 1009 1408 l 1,24,-1
 1032 1431 l 1,17,-1
EndSplineSet
Validated: 1
EndChar

StartChar: afii10046
Encoding: 1068 1068 103
Width: 976
Flags: W
LayerCount: 2
Fore
SplineSet
55 23 m 1,0,-1
 55 1408 l 1,1,-1
 78 1431 l 1,2,-1
 401 1431 l 1,3,-1
 424 1408 l 1,4,-1
 424 946 l 1,5,-1
 667 946 l 1,6,7
 897 766 897 766 921 727 c 1,8,-1
 921 219 l 1,9,10
 686 0 686 0 632 0 c 2,11,-1
 78 0 l 1,12,-1
 55 23 l 1,0,-1
563 277 m 1,13,-1
 563 669 l 1,14,-1
 424 669 l 1,15,-1
 424 277 l 1,16,-1
 563 277 l 1,13,-1
EndSplineSet
Validated: 1
EndChar

StartChar: afii10047
Encoding: 1069 1069 104
Width: 999
Flags: W
LayerCount: 2
Fore
SplineSet
392 637 m 1,0,-1
 392 839 l 1,1,-1
 575 839 l 1,2,-1
 575 1154 l 1,3,-1
 425 1154 l 1,4,-1
 425 900 l 1,5,-1
 402 877 l 1,6,-1
 78 877 l 1,7,-1
 55 900 l 1,8,-1
 55 1212 l 1,9,10
 83 1254 83 1254 309 1431 c 1,11,-1
 702 1431 l 1,12,-1
 944 1212 l 1,13,-1
 944 219 l 1,14,15
 921 181 921 181 679 0 c 1,16,-1
 309 0 l 1,17,18
 90 169 90 169 55 219 c 1,19,-1
 55 589 l 1,20,-1
 78 612 l 1,21,-1
 402 612 l 1,22,-1
 425 589 l 1,23,-1
 425 277 l 1,24,-1
 575 277 l 1,25,-1
 575 637 l 1,26,-1
 392 637 l 1,0,-1
EndSplineSet
Validated: 1
EndChar

StartChar: afii10048
Encoding: 1070 1070 105
Width: 1469
Flags: W
LayerCount: 2
Fore
SplineSet
894 1154 m 1,0,-1
 894 277 l 1,1,-1
 1044 277 l 1,2,-1
 1044 1154 l 1,3,-1
 894 1154 l 1,0,-1
525 861 m 1,4,-1
 525 1212 l 1,5,-1
 767 1431 l 1,6,-1
 1160 1431 l 1,7,-1
 1414 1212 l 1,8,-1
 1414 219 l 1,9,10
 1344 134 1344 134 1171 0 c 1,11,-1
 767 0 l 1,12,13
 569 160 569 160 525 219 c 1,14,-1
 525 637 l 1,15,-1
 410 637 l 1,16,-1
 410 22 l 1,17,-1
 387 -1 l 1,18,-1
 78 -1 l 1,19,-1
 55 22 l 1,20,-1
 55 1408 l 1,21,-1
 78 1431 l 1,22,-1
 387 1431 l 1,23,-1
 410 1408 l 1,24,-1
 410 861 l 1,25,-1
 525 861 l 1,4,-1
EndSplineSet
Validated: 1
EndChar

StartChar: afii10049
Encoding: 1071 1071 106
Width: 943
Flags: W
LayerCount: 2
Fore
SplineSet
888 1407 m 1,0,-1
 888 22 l 1,1,-1
 865 -1 l 1,2,-1
 561 -1 l 1,3,-1
 539 22 l 1,4,-1
 539 573 l 1,5,-1
 415 573 l 1,6,-1
 392 551 l 1,7,-1
 392 22 l 1,8,-1
 370 -1 l 1,9,-1
 77 -1 l 1,10,-1
 55 22 l 1,11,-1
 55 562 l 1,12,-1
 223 709 l 1,13,-1
 55 855 l 1,14,-1
 55 1204 l 1,15,16
 194 1355 194 1355 302 1429 c 1,17,-1
 865 1429 l 1,18,-1
 888 1407 l 1,0,-1
392 1159 m 1,19,-1
 392 844 l 1,20,-1
 539 844 l 1,21,-1
 539 1159 l 1,22,-1
 392 1159 l 1,19,-1
EndSplineSet
Validated: 1
EndChar

StartChar: afii10065
Encoding: 1072 1072 107
Width: 958
Flags: W
LayerCount: 2
Fore
SplineSet
296 1431 m 1,0,-1
 674 1431 l 1,1,-1
 903 1213 l 1,2,-1
 903 22 l 1,3,-1
 880 -1 l 1,4,-1
 570 -1 l 1,5,-1
 548 22 l 1,6,-1
 548 263 l 1,7,-1
 410 263 l 1,8,-1
 410 22 l 1,9,-1
 387 -1 l 1,10,-1
 78 -1 l 1,11,-1
 55 22 l 1,12,-1
 55 1213 l 1,13,-1
 296 1431 l 1,0,-1
410 1156 m 1,14,-1
 410 549 l 1,15,-1
 548 549 l 1,16,-1
 548 1156 l 1,17,-1
 410 1156 l 1,14,-1
EndSplineSet
Validated: 1
EndChar

StartChar: afii10066
Encoding: 1073 1073 108
Width: 976
Flags: W
LayerCount: 2
Fore
SplineSet
563 277 m 1,0,-1
 563 669 l 1,1,-1
 424 669 l 1,2,-1
 424 277 l 1,3,-1
 563 277 l 1,0,-1
876 1431 m 1,4,-1
 876 1064 l 1,5,-1
 772 1064 l 1,6,-1
 772 1206 l 1,7,-1
 424 1206 l 1,8,-1
 424 946 l 1,9,-1
 667 946 l 1,10,11
 897 766 897 766 921 727 c 1,12,-1
 921 219 l 1,13,14
 686 0 686 0 632 0 c 2,15,-1
 78 0 l 1,16,-1
 55 23 l 1,17,-1
 55 1408 l 1,18,-1
 78 1431 l 1,19,-1
 876 1431 l 1,4,-1
EndSplineSet
Validated: 1
EndChar

StartChar: afii10067
Encoding: 1074 1074 109
Width: 956
Flags: W
LayerCount: 2
Fore
SplineSet
73 1431 m 1,0,-1
 640 1431 l 2,1,2
 688 1431 688 1431 865 1242 c 1,3,-1
 865 882 l 1,4,5
 729 738 729 738 703 738 c 1,6,-1
 901 585 l 1,7,-1
 901 216 l 1,8,9
 685 0 685 0 640 0 c 2,10,-1
 73 0 l 1,11,-1
 55 18 l 1,12,-1
 55 1413 l 1,13,-1
 73 1431 l 1,0,-1
406 1143 m 1,14,-1
 406 864 l 1,15,-1
 550 864 l 1,16,-1
 550 1143 l 1,17,-1
 532 1161 l 1,18,-1
 424 1161 l 1,19,-1
 406 1143 l 1,14,-1
406 585 m 1,20,-1
 406 270 l 1,21,-1
 550 270 l 1,22,-1
 550 585 l 1,23,-1
 406 585 l 1,20,-1
EndSplineSet
Validated: 1
EndChar

StartChar: afii10068
Encoding: 1075 1075 110
Width: 827
Flags: W
LayerCount: 2
Fore
SplineSet
614 1154 m 1,0,-1
 424 1154 l 1,1,-1
 424 23 l 1,2,-1
 401 0 l 1,3,-1
 78 0 l 1,4,-1
 55 23 l 1,5,-1
 55 1408 l 1,6,-1
 78 1431 l 1,7,-1
 747 1431 l 1,8,-1
 771 1408 l 1,9,-1
 772 966 l 1,10,-1
 614 966 l 1,11,-1
 614 1154 l 1,0,-1
EndSplineSet
Validated: 1
EndChar

StartChar: afii10069
Encoding: 1076 1076 111
Width: 1317
Flags: W
LayerCount: 2
Fore
SplineSet
186 187 m 1,0,-1
 349 499 l 1,1,-1
 349 1139 l 1,2,-1
 189 1139 l 1,3,-1
 189 1431 l 1,4,-1
 1262 1431 l 1,5,-1
 1262 1139 l 1,6,-1
 1164 1139 l 1,7,-1
 1164 187 l 1,8,-1
 1208 187 l 1,9,-1
 1208 45 l 1,10,-1
 1209 45 l 1,11,-1
 1209 -322 l 1,12,-1
 954 -322 l 1,13,-1
 954 -1 l 1,14,-1
 832 -1 l 1,15,-1
 831 0 l 1,16,-1
 373 0 l 1,17,-1
 310 -1 l 1,18,-1
 310 -322 l 1,19,-1
 55 -322 l 1,20,-1
 55 187 l 1,21,-1
 186 187 l 1,0,-1
809 187 m 1,22,-1
 809 1139 l 1,23,-1
 704 1139 l 1,24,-1
 704 487 l 1,25,-1
 558 187 l 1,26,-1
 809 187 l 1,22,-1
EndSplineSet
Validated: 1
EndChar

StartChar: afii10070
Encoding: 1077 1077 112
Width: 752
Flags: W
LayerCount: 2
Fore
SplineSet
78 1432 m 1,0,-1
 663 1432 l 1,1,-1
 686 1410 l 1,2,-1
 686 1185 l 1,3,-1
 663 1162 l 1,4,-1
 404 1162 l 1,5,-1
 404 903 l 1,6,-1
 618 903 l 1,7,-1
 641 881 l 1,8,-1
 641 644 l 1,9,-1
 618 622 l 1,10,-1
 404 622 l 1,11,-1
 404 284 l 1,12,-1
 674 284 l 1,13,-1
 697 261 l 1,14,-1
 697 25 l 1,15,-1
 674 2 l 1,16,-1
 78 2 l 1,17,-1
 55 25 l 1,18,-1
 55 1410 l 1,19,-1
 78 1432 l 1,0,-1
EndSplineSet
Validated: 1
EndChar

StartChar: afii10072
Encoding: 1078 1078 113
Width: 1853
Flags: W
LayerCount: 2
Fore
SplineSet
1090 1431 m 1,0,-1
 1113 1408 l 1,1,-1
 1113 831 l 1,2,-1
 1125 831 l 1,3,4
 1346 1431 1346 1431 1379 1431 c 2,5,-1
 1798 1431 l 1,6,-1
 1798 1011 l 1,7,-1
 1588 1011 l 1,8,-1
 1588 1265 l 1,9,10
 1425 775 1425 775 1425 750 c 1,11,-1
 1783 12 l 1,12,-1
 1771 0 l 1,13,-1
 1402 0 l 2,14,15
 1374 0 1374 0 1125 600 c 1,16,-1
 1113 600 l 1,17,-1
 1113 23 l 1,18,-1
 1090 0 l 1,19,-1
 763 0 l 1,20,-1
 740 23 l 1,21,-1
 740 600 l 1,22,-1
 728 600 l 1,23,24
 479 0 479 0 451 0 c 2,25,-1
 82 0 l 1,26,-1
 70 12 l 1,27,-1
 428 750 l 1,28,29
 428 775 428 775 265 1265 c 1,30,-1
 265 1011 l 1,31,-1
 55 1011 l 1,32,-1
 55 1431 l 1,33,-1
 474 1431 l 2,34,35
 507 1431 507 1431 728 831 c 1,36,-1
 740 831 l 1,37,-1
 740 1408 l 1,38,-1
 763 1431 l 1,39,-1
 1090 1431 l 1,0,-1
EndSplineSet
Validated: 1
EndChar

StartChar: afii10073
Encoding: 1079 1079 114
Width: 994
Flags: W
LayerCount: 2
Fore
SplineSet
235 1272 m 1,0,-1
 372 1429 l 1,1,-1
 675 1429 l 1,2,-1
 939 1210 l 1,3,-1
 939 900 l 1,4,5
 867 813 867 813 732 739 c 1,6,-1
 732 727 l 1,7,-1
 939 555 l 1,8,-1
 939 221 l 1,9,-1
 686 2 l 1,10,-1
 295 2 l 1,11,-1
 65 221 l 1,12,-1
 65 440 l 1,13,-1
 88 463 l 1,14,-1
 399 463 l 1,15,-1
 422 440 l 1,16,-1
 422 279 l 1,17,-1
 560 279 l 1,18,-1
 560 589 l 1,19,-1
 387 589 l 1,20,-1
 364 612 l 1,21,-1
 364 842 l 1,22,-1
 387 865 l 1,23,-1
 560 865 l 1,24,-1
 560 1153 l 1,25,-1
 422 1153 l 1,26,-1
 422 1003 l 1,27,-1
 399 980 l 1,28,-1
 88 980 l 1,29,-1
 82 986 l 1,30,-1
 55 986 l 1,31,-1
 55 1432 l 1,32,-1
 235 1432 l 1,33,-1
 235 1272 l 1,0,-1
EndSplineSet
Validated: 1
EndChar

StartChar: afii10074
Encoding: 1080 1080 115
Width: 999
Flags: W
LayerCount: 2
Fore
SplineSet
78 1431 m 1,0,-1
 401 1431 l 1,1,-1
 424 1408 l 1,2,-1
 424 870 l 1,3,-1
 574 1300 l 1,4,-1
 574 1408 l 1,5,-1
 597 1431 l 1,6,-1
 921 1431 l 1,7,-1
 944 1408 l 1,8,-1
 944 23 l 1,9,-1
 921 0 l 1,10,-1
 597 0 l 1,11,-1
 574 23 l 1,12,-1
 574 684 l 1,13,-1
 424 102 l 1,14,-1
 424 23 l 1,15,-1
 401 0 l 1,16,-1
 78 0 l 1,17,-1
 55 23 l 1,18,-1
 55 1408 l 1,19,-1
 78 1431 l 1,0,-1
EndSplineSet
Validated: 1
EndChar

StartChar: afii10075
Encoding: 1081 1081 116
Width: 999
Flags: W
LayerCount: 2
Fore
SplineSet
78 1431 m 1,0,-1
 401 1431 l 1,1,-1
 424 1408 l 1,2,-1
 424 870 l 1,3,-1
 574 1300 l 1,4,-1
 574 1408 l 1,5,-1
 597 1431 l 1,6,-1
 921 1431 l 1,7,-1
 944 1408 l 1,8,-1
 944 23 l 1,9,-1
 921 0 l 1,10,-1
 597 0 l 1,11,-1
 574 23 l 1,12,-1
 574 684 l 1,13,-1
 424 102 l 1,14,-1
 424 23 l 1,15,-1
 401 0 l 1,16,-1
 78 0 l 1,17,-1
 55 23 l 1,18,-1
 55 1408 l 1,19,-1
 78 1431 l 1,0,-1
277 1725 m 1,20,-1
 277 1596 l 1,21,-1
 397 1498 l 1,22,-1
 674 1498 l 1,23,-1
 764 1618 l 1,24,-1
 764 1730 l 1,25,-1
 622 1730 l 1,26,-1
 622 1611 l 1,27,-1
 427 1611 l 1,28,-1
 427 1720 l 1,29,-1
 277 1725 l 1,20,-1
EndSplineSet
Validated: 9
EndChar

StartChar: afii10076
Encoding: 1082 1082 117
Width: 1164
Flags: W
LayerCount: 2
Fore
SplineSet
899 1265 m 1,0,1
 736 775 736 775 736 750 c 1,2,-1
 1094 12 l 1,3,-1
 1082 0 l 1,4,-1
 713 0 l 2,5,6
 685 0 685 0 436 600 c 1,7,-1
 424 600 l 1,8,-1
 424 23 l 1,9,-1
 401 0 l 1,10,-1
 78 0 l 1,11,-1
 55 23 l 1,12,-1
 55 1408 l 1,13,-1
 78 1431 l 1,14,-1
 401 1431 l 1,15,-1
 424 1408 l 1,16,-1
 424 831 l 1,17,-1
 436 831 l 1,18,19
 657 1431 657 1431 690 1431 c 2,20,-1
 1109 1431 l 1,21,-1
 1109 1011 l 1,22,-1
 899 1011 l 1,23,-1
 899 1265 l 1,0,1
EndSplineSet
Validated: 1
EndChar

StartChar: afii10077
Encoding: 1083 1083 118
Width: 1314
Flags: W
LayerCount: 2
Fore
SplineSet
233 260 m 1,0,-1
 346 499 l 1,1,-1
 346 1139 l 1,2,-1
 186 1139 l 1,3,-1
 186 1431 l 1,4,-1
 1259 1431 l 1,5,-1
 1259 1139 l 1,6,-1
 1161 1139 l 1,7,-1
 1161 22 l 1,8,-1
 1138 -1 l 1,9,-1
 829 -1 l 1,10,-1
 806 22 l 1,11,-1
 806 1139 l 1,12,-1
 701 1139 l 1,13,-1
 701 487 l 1,14,-1
 465 1 l 1,15,-1
 55 1 l 1,16,-1
 55 383 l 1,17,-1
 233 383 l 1,18,-1
 233 260 l 1,0,-1
EndSplineSet
Validated: 1
EndChar

StartChar: afii10078
Encoding: 1084 1084 119
Width: 1208
Flags: W
LayerCount: 2
Fore
SplineSet
78 1429 m 1,0,-1
 455 1429 l 2,1,2
 478 1429 478 1429 593 743 c 1,3,-1
 627 743 l 1,4,-1
 627 755 l 1,5,6
 718 1429 718 1429 753 1429 c 2,7,-1
 1130 1429 l 1,8,-1
 1153 1407 l 1,9,-1
 1153 22 l 1,10,-1
 1130 0 l 1,11,-1
 844 0 l 1,12,-1
 821 22 l 1,13,-1
 821 903 l 1,14,-1
 810 903 l 1,15,16
 680 0 680 0 650 0 c 2,17,-1
 558 0 l 2,18,19
 528 0 528 0 387 903 c 1,20,-1
 375 903 l 1,21,-1
 375 22 l 1,22,-1
 352 0 l 1,23,-1
 78 0 l 1,24,-1
 55 22 l 1,25,-1
 55 1407 l 1,26,-1
 78 1429 l 1,0,-1
EndSplineSet
Validated: 1
EndChar

StartChar: afii10079
Encoding: 1085 1085 120
Width: 999
Flags: W
LayerCount: 2
Fore
SplineSet
78 1431 m 1,0,-1
 401 1431 l 1,1,-1
 424 1408 l 1,2,-1
 424 854 l 1,3,-1
 574 854 l 1,4,-1
 574 1408 l 1,5,-1
 597 1431 l 1,6,-1
 921 1431 l 1,7,-1
 944 1408 l 1,8,-1
 944 23 l 1,9,-1
 921 0 l 1,10,-1
 597 0 l 1,11,-1
 574 23 l 1,12,-1
 574 577 l 1,13,-1
 424 577 l 1,14,-1
 424 23 l 1,15,-1
 401 0 l 1,16,-1
 78 0 l 1,17,-1
 55 23 l 1,18,-1
 55 1408 l 1,19,-1
 78 1431 l 1,0,-1
EndSplineSet
Validated: 1
EndChar

StartChar: afii10080
Encoding: 1086 1086 121
Width: 999
Flags: W
LayerCount: 2
Fore
SplineSet
297 1431 m 1,0,-1
 690 1431 l 1,1,-1
 944 1212 l 1,2,-1
 944 219 l 1,3,4
 874 134 874 134 701 0 c 1,5,-1
 297 0 l 1,6,7
 99 160 99 160 55 219 c 1,8,-1
 55 1212 l 1,9,-1
 297 1431 l 1,0,-1
424 1154 m 1,10,-1
 424 277 l 1,11,-1
 574 277 l 1,12,-1
 574 1154 l 1,13,-1
 424 1154 l 1,10,-1
EndSplineSet
Validated: 1
EndChar

StartChar: afii10081
Encoding: 1087 1087 122
Width: 1184
Flags: W
LayerCount: 2
Fore
SplineSet
510 1154 m 1,0,-1
 510 22 l 1,1,-1
 487 -1 l 1,2,-1
 178 -1 l 1,3,-1
 155 22 l 1,4,-1
 155 1154 l 1,5,-1
 55 1154 l 1,6,-1
 55 1431 l 1,7,-1
 1129 1431 l 1,8,-1
 1129 1154 l 1,9,-1
 1019 1154 l 1,10,-1
 1019 22 l 1,11,-1
 996 -1 l 1,12,-1
 687 -1 l 1,13,-1
 664 22 l 1,14,-1
 664 1154 l 1,15,-1
 510 1154 l 1,0,-1
EndSplineSet
Validated: 1
EndChar

StartChar: afii10082
Encoding: 1088 1088 123
Width: 976
Flags: W
LayerCount: 2
Fore
SplineSet
78 1431 m 1,0,-1
 632 1431 l 2,1,2
 686 1431 686 1431 921 1212 c 1,3,-1
 921 704 l 1,4,5
 897 665 897 665 667 485 c 1,6,-1
 424 485 l 1,7,-1
 424 23 l 1,8,-1
 401 0 l 1,9,-1
 78 0 l 1,10,-1
 55 23 l 1,11,-1
 55 1408 l 1,12,-1
 78 1431 l 1,0,-1
424 1154 m 1,13,-1
 424 762 l 1,14,-1
 563 762 l 1,15,-1
 563 1154 l 1,16,-1
 424 1154 l 1,13,-1
EndSplineSet
Validated: 1
EndChar

StartChar: afii10083
Encoding: 1089 1089 124
Width: 999
Flags: W
LayerCount: 2
Fore
SplineSet
297 1431 m 1,0,-1
 690 1431 l 1,1,2
 916 1254 916 1254 944 1212 c 1,3,-1
 944 900 l 1,4,-1
 921 877 l 1,5,-1
 597 877 l 1,6,-1
 574 900 l 1,7,-1
 574 1154 l 1,8,-1
 424 1154 l 1,9,-1
 424 277 l 1,10,-1
 574 277 l 1,11,-1
 574 589 l 1,12,-1
 597 612 l 1,13,-1
 921 612 l 1,14,-1
 944 589 l 1,15,-1
 944 219 l 1,16,17
 909 169 909 169 690 0 c 1,18,-1
 320 0 l 1,19,20
 78 181 78 181 55 219 c 1,21,-1
 55 1212 l 1,22,-1
 297 1431 l 1,0,-1
EndSplineSet
Validated: 1
EndChar

StartChar: afii10084
Encoding: 1090 1090 125
Width: 842
Flags: W
LayerCount: 2
Fore
SplineSet
78 1431 m 1,0,-1
 765 1431 l 1,1,-1
 787 1409 l 1,2,-1
 787 1172 l 1,3,-1
 765 1150 l 1,4,-1
 596 1150 l 1,5,-1
 596 12 l 1,6,-1
 573 -10 l 1,7,-1
 269 -10 l 1,8,-1
 246 12 l 1,9,-1
 246 1150 l 1,10,-1
 78 1150 l 1,11,-1
 55 1172 l 1,12,-1
 55 1409 l 1,13,-1
 78 1431 l 1,0,-1
EndSplineSet
Validated: 1
EndChar

StartChar: afii10085
Encoding: 1091 1091 126
Width: 1102
Flags: W
LayerCount: 2
Fore
SplineSet
206 210 m 1,0,-1
 355 577 l 1,1,-1
 55 1419 l 1,2,-1
 55 1431 l 1,3,-1
 401 1431 l 2,4,5
 432 1431 432 1431 540 923 c 1,6,-1
 551 923 l 1,7,8
 667 1431 667 1431 701 1431 c 2,9,-1
 1024 1431 l 1,10,-1
 1036 1419 l 1,11,-1
 1047 1419 l 1,12,-1
 736 589 l 1,13,-1
 511 23 l 1,14,-1
 488 0 l 1,15,-1
 60 -2 l 1,16,-1
 60 300 l 1,17,-1
 173 300 l 1,18,-1
 173 210 l 1,19,-1
 206 210 l 1,0,-1
EndSplineSet
Validated: 1
EndChar

StartChar: afii10086
Encoding: 1092 1092 127
Width: 1478
Flags: W
LayerCount: 2
Fore
SplineSet
926 840 m 1,0,-1
 926 448 l 1,1,-1
 1065 448 l 1,2,-1
 1065 840 l 1,3,-1
 926 840 l 1,0,-1
413 840 m 1,4,-1
 413 448 l 1,5,-1
 552 448 l 1,6,-1
 552 840 l 1,7,-1
 413 840 l 1,4,-1
926 1431 m 1,8,-1
 926 1117 l 1,9,-1
 1134 1117 l 2,10,11
 1188 1117 1188 1117 1423 898 c 1,12,-1
 1423 390 l 1,13,14
 1399 351 1399 351 1169 171 c 1,15,-1
 926 171 l 1,16,-1
 926 23 l 1,17,-1
 903 0 l 1,18,-1
 575 0 l 1,19,-1
 552 23 l 1,20,-1
 552 171 l 1,21,-1
 309 171 l 1,22,23
 79 351 79 351 55 390 c 1,24,-1
 55 898 l 1,25,26
 290 1117 290 1117 344 1117 c 2,27,-1
 552 1117 l 1,28,-1
 552 1431 l 1,29,-1
 926 1431 l 1,8,-1
EndSplineSet
Validated: 1
EndChar

StartChar: afii10087
Encoding: 1093 1093 128
Width: 1137
Flags: W
LayerCount: 2
Fore
SplineSet
424 1431 m 2,0,1
 455 1431 455 1431 551 1050 c 1,2,-1
 574 1050 l 1,3,4
 667 1431 667 1431 701 1431 c 2,5,-1
 1036 1431 l 1,6,-1
 1047 1419 l 1,7,-1
 1059 1419 l 1,8,-1
 782 750 l 1,9,-1
 1082 12 l 1,10,-1
 1071 0 l 1,11,-1
 724 0 l 1,12,13
 694 30 694 30 563 404 c 1,14,-1
 551 404 l 1,15,16
 444 0 444 0 413 0 c 2,17,-1
 78 0 l 1,18,-1
 67 12 l 1,19,-1
 55 12 l 1,20,-1
 355 739 l 1,21,-1
 67 1419 l 1,22,-1
 78 1431 l 1,23,-1
 424 1431 l 2,0,1
EndSplineSet
Validated: 1
EndChar

StartChar: afii10088
Encoding: 1094 1094 129
Width: 1142
Flags: W
LayerCount: 2
Fore
SplineSet
742 0 m 1,0,-1
 78 0 l 1,1,-1
 55 23 l 1,2,-1
 55 1408 l 1,3,-1
 78 1431 l 1,4,-1
 401 1431 l 1,5,-1
 424 1408 l 1,6,-1
 424 277 l 1,7,-1
 593 277 l 1,8,-1
 593 1408 l 1,9,-1
 616 1431 l 1,10,-1
 939 1431 l 1,11,-1
 962 1408 l 1,12,-1
 962 262 l 1,13,-1
 1087 262 l 1,14,-1
 1087 -262 l 1,15,-1
 742 -262 l 1,16,-1
 742 0 l 1,0,-1
EndSplineSet
Validated: 1
EndChar

StartChar: afii10089
Encoding: 1095 1095 130
Width: 999
Flags: W
LayerCount: 2
Fore
SplineSet
55 577 m 1,0,-1
 55 1408 l 1,1,-1
 78 1431 l 1,2,-1
 401 1431 l 1,3,-1
 424 1408 l 1,4,-1
 424 854 l 1,5,-1
 574 854 l 1,6,-1
 574 1408 l 1,7,-1
 597 1431 l 1,8,-1
 921 1431 l 1,9,-1
 944 1408 l 1,10,-1
 944 23 l 1,11,-1
 921 0 l 1,12,-1
 597 0 l 1,13,-1
 574 23 l 1,14,-1
 574 577 l 1,15,-1
 55 577 l 1,0,-1
EndSplineSet
Validated: 1
EndChar

StartChar: afii10090
Encoding: 1096 1096 131
Width: 1541
Flags: W
LayerCount: 2
Fore
SplineSet
78 0 m 1,0,-1
 55 23 l 1,1,-1
 55 1408 l 1,2,-1
 78 1431 l 1,3,-1
 401 1431 l 1,4,-1
 424 1408 l 1,5,-1
 424 277 l 1,6,-1
 586 277 l 1,7,-1
 586 1408 l 1,8,-1
 609 1431 l 1,9,-1
 932 1431 l 1,10,-1
 955 1408 l 1,11,-1
 955 277 l 1,12,-1
 1117 277 l 1,13,-1
 1117 1408 l 1,14,-1
 1140 1431 l 1,15,-1
 1463 1431 l 1,16,-1
 1486 1408 l 1,17,-1
 1486 23 l 1,18,-1
 1463 0 l 1,19,-1
 78 0 l 1,0,-1
EndSplineSet
Validated: 1
EndChar

StartChar: afii10091
Encoding: 1097 1097 132
Width: 1666
Flags: W
LayerCount: 2
Fore
SplineSet
1266 0 m 1,0,-1
 78 0 l 1,1,-1
 55 23 l 1,2,-1
 55 1408 l 1,3,-1
 78 1431 l 1,4,-1
 401 1431 l 1,5,-1
 424 1408 l 1,6,-1
 424 277 l 1,7,-1
 586 277 l 1,8,-1
 586 1408 l 1,9,-1
 609 1431 l 1,10,-1
 932 1431 l 1,11,-1
 955 1408 l 1,12,-1
 955 277 l 1,13,-1
 1117 277 l 1,14,-1
 1117 1408 l 1,15,-1
 1140 1431 l 1,16,-1
 1463 1431 l 1,17,-1
 1486 1408 l 1,18,-1
 1486 262 l 1,19,-1
 1611 262 l 1,20,-1
 1611 -262 l 1,21,-1
 1266 -262 l 1,22,-1
 1266 0 l 1,0,-1
EndSplineSet
Validated: 1
EndChar

StartChar: afii10092
Encoding: 1098 1098 133
Width: 1196
Flags: W
LayerCount: 2
Fore
SplineSet
783 277 m 1,0,-1
 783 669 l 1,1,-1
 644 669 l 1,2,-1
 644 277 l 1,3,-1
 783 277 l 1,0,-1
621 1431 m 1,4,-1
 644 1408 l 1,5,-1
 644 946 l 1,6,-1
 887 946 l 1,7,8
 1117 766 1117 766 1141 727 c 1,9,-1
 1141 219 l 1,10,11
 906 0 906 0 852 0 c 2,12,-1
 298 0 l 1,13,-1
 275 23 l 1,14,-1
 275 1228 l 1,15,-1
 55 1228 l 1,16,-1
 55 1431 l 1,17,-1
 621 1431 l 1,4,-1
EndSplineSet
Validated: 1
EndChar

StartChar: afii10093
Encoding: 1099 1099 134
Width: 1419
Flags: W
LayerCount: 2
Fore
SplineSet
55 23 m 1,0,-1
 55 1408 l 1,1,-1
 78 1431 l 1,2,-1
 401 1431 l 1,3,-1
 424 1408 l 1,4,-1
 424 946 l 1,5,-1
 667 946 l 1,6,7
 897 766 897 766 921 727 c 1,8,-1
 921 219 l 1,9,10
 686 0 686 0 632 0 c 2,11,-1
 78 0 l 1,12,-1
 55 23 l 1,0,-1
563 277 m 1,13,-1
 563 669 l 1,14,-1
 424 669 l 1,15,-1
 424 277 l 1,16,-1
 563 277 l 1,13,-1
1032 1431 m 1,17,-1
 1341 1431 l 1,18,-1
 1364 1408 l 1,19,-1
 1364 22 l 1,20,-1
 1341 -1 l 1,21,-1
 1032 -1 l 1,22,-1
 1009 22 l 1,23,-1
 1009 1408 l 1,24,-1
 1032 1431 l 1,17,-1
EndSplineSet
Validated: 1
EndChar

StartChar: afii10094
Encoding: 1100 1100 135
Width: 976
Flags: W
LayerCount: 2
Fore
SplineSet
55 23 m 1,0,-1
 55 1408 l 1,1,-1
 78 1431 l 1,2,-1
 401 1431 l 1,3,-1
 424 1408 l 1,4,-1
 424 946 l 1,5,-1
 667 946 l 1,6,7
 897 766 897 766 921 727 c 1,8,-1
 921 219 l 1,9,10
 686 0 686 0 632 0 c 2,11,-1
 78 0 l 1,12,-1
 55 23 l 1,0,-1
563 277 m 1,13,-1
 563 669 l 1,14,-1
 424 669 l 1,15,-1
 424 277 l 1,16,-1
 563 277 l 1,13,-1
EndSplineSet
Validated: 1
EndChar

StartChar: afii10095
Encoding: 1101 1101 136
Width: 999
Flags: W
LayerCount: 2
Fore
SplineSet
392 637 m 1,0,-1
 392 839 l 1,1,-1
 575 839 l 1,2,-1
 575 1154 l 1,3,-1
 425 1154 l 1,4,-1
 425 900 l 1,5,-1
 402 877 l 1,6,-1
 78 877 l 1,7,-1
 55 900 l 1,8,-1
 55 1212 l 1,9,10
 83 1254 83 1254 309 1431 c 1,11,-1
 702 1431 l 1,12,-1
 944 1212 l 1,13,-1
 944 219 l 1,14,15
 921 181 921 181 679 0 c 1,16,-1
 309 0 l 1,17,18
 90 169 90 169 55 219 c 1,19,-1
 55 589 l 1,20,-1
 78 612 l 1,21,-1
 402 612 l 1,22,-1
 425 589 l 1,23,-1
 425 277 l 1,24,-1
 575 277 l 1,25,-1
 575 637 l 1,26,-1
 392 637 l 1,0,-1
EndSplineSet
Validated: 1
EndChar

StartChar: afii10096
Encoding: 1102 1102 137
Width: 1469
Flags: W
LayerCount: 2
Fore
SplineSet
894 1154 m 1,0,-1
 894 277 l 1,1,-1
 1044 277 l 1,2,-1
 1044 1154 l 1,3,-1
 894 1154 l 1,0,-1
525 861 m 1,4,-1
 525 1212 l 1,5,-1
 767 1431 l 1,6,-1
 1160 1431 l 1,7,-1
 1414 1212 l 1,8,-1
 1414 219 l 1,9,10
 1344 134 1344 134 1171 0 c 1,11,-1
 767 0 l 1,12,13
 569 160 569 160 525 219 c 1,14,-1
 525 637 l 1,15,-1
 410 637 l 1,16,-1
 410 22 l 1,17,-1
 387 -1 l 1,18,-1
 78 -1 l 1,19,-1
 55 22 l 1,20,-1
 55 1408 l 1,21,-1
 78 1431 l 1,22,-1
 387 1431 l 1,23,-1
 410 1408 l 1,24,-1
 410 861 l 1,25,-1
 525 861 l 1,4,-1
EndSplineSet
Validated: 1
EndChar

StartChar: afii10097
Encoding: 1103 1103 138
Width: 943
Flags: W
LayerCount: 2
Fore
SplineSet
888 1407 m 1,0,-1
 888 22 l 1,1,-1
 865 -1 l 1,2,-1
 561 -1 l 1,3,-1
 539 22 l 1,4,-1
 539 573 l 1,5,-1
 415 573 l 1,6,-1
 392 551 l 1,7,-1
 392 22 l 1,8,-1
 370 -1 l 1,9,-1
 77 -1 l 1,10,-1
 55 22 l 1,11,-1
 55 562 l 1,12,-1
 223 709 l 1,13,-1
 55 855 l 1,14,-1
 55 1204 l 1,15,16
 194 1355 194 1355 302 1429 c 1,17,-1
 865 1429 l 1,18,-1
 888 1407 l 1,0,-1
392 1159 m 1,19,-1
 392 844 l 1,20,-1
 539 844 l 1,21,-1
 539 1159 l 1,22,-1
 392 1159 l 1,19,-1
EndSplineSet
Validated: 1
EndChar

StartChar: Ccaron
Encoding: 268 268 139
Width: 999
Flags: W
LayerCount: 2
Fore
SplineSet
297 1431 m 1,0,-1
 690 1431 l 1,1,2
 916 1254 916 1254 944 1212 c 1,3,-1
 944 900 l 1,4,-1
 921 877 l 1,5,-1
 597 877 l 1,6,-1
 574 900 l 1,7,-1
 574 1154 l 1,8,-1
 424 1154 l 1,9,-1
 424 277 l 1,10,-1
 574 277 l 1,11,-1
 574 589 l 1,12,-1
 597 612 l 1,13,-1
 921 612 l 1,14,-1
 944 589 l 1,15,-1
 944 219 l 1,16,17
 909 169 909 169 690 0 c 1,18,-1
 320 0 l 1,19,20
 78 181 78 181 55 219 c 1,21,-1
 55 1212 l 1,22,-1
 297 1431 l 1,0,-1
277 1725 m 5,23,-1
 277 1596 l 5,24,-1
 397 1498 l 5,25,-1
 674 1498 l 5,26,-1
 764 1618 l 5,27,-1
 764 1730 l 5,28,-1
 622 1730 l 5,29,-1
 622 1611 l 5,30,-1
 427 1611 l 5,31,-1
 427 1720 l 5,32,-1
 277 1725 l 5,23,-1
EndSplineSet
Validated: 9
EndChar

StartChar: ccaron
Encoding: 269 269 140
Width: 999
Flags: W
LayerCount: 2
Fore
SplineSet
297 1431 m 1,0,-1
 690 1431 l 1,1,2
 916 1254 916 1254 944 1212 c 1,3,-1
 944 900 l 1,4,-1
 921 877 l 1,5,-1
 597 877 l 1,6,-1
 574 900 l 1,7,-1
 574 1154 l 1,8,-1
 424 1154 l 1,9,-1
 424 277 l 1,10,-1
 574 277 l 1,11,-1
 574 589 l 1,12,-1
 597 612 l 1,13,-1
 921 612 l 1,14,-1
 944 589 l 1,15,-1
 944 219 l 1,16,17
 909 169 909 169 690 0 c 1,18,-1
 320 0 l 1,19,20
 78 181 78 181 55 219 c 1,21,-1
 55 1212 l 1,22,-1
 297 1431 l 1,0,-1
277 1725 m 5,23,-1
 277 1596 l 5,24,-1
 397 1498 l 5,25,-1
 674 1498 l 5,26,-1
 764 1618 l 5,27,-1
 764 1730 l 5,28,-1
 622 1730 l 5,29,-1
 622 1611 l 5,30,-1
 427 1611 l 5,31,-1
 427 1720 l 5,32,-1
 277 1725 l 5,23,-1
EndSplineSet
Validated: 9
EndChar

StartChar: Dcaron
Encoding: 270 270 141
Width: 999
Flags: W
LayerCount: 2
Fore
SplineSet
73 1431 m 1,0,-1
 631 1431 l 2,1,2
 682 1431 682 1431 901 1206 c 1,3,-1
 901 243 l 2,4,5
 901 196 901 196 667 0 c 1,6,-1
 73 0 l 1,7,-1
 55 18 l 1,8,-1
 55 1413 l 1,9,-1
 73 1431 l 1,0,-1
406 1161 m 1,10,-1
 406 270 l 1,11,-1
 541 270 l 1,12,-1
 541 1161 l 1,13,-1
 406 1161 l 1,10,-1
228 1737 m 5,14,-1
 228 1608 l 5,15,-1
 348 1510 l 5,16,-1
 625 1510 l 5,17,-1
 715 1630 l 5,18,-1
 715 1742 l 5,19,-1
 573 1742 l 5,20,-1
 573 1623 l 5,21,-1
 378 1623 l 5,22,-1
 378 1732 l 5,23,-1
 228 1737 l 5,14,-1
EndSplineSet
EndChar

StartChar: Ebreve
Encoding: 276 276 142
Width: 763
Flags: W
LayerCount: 2
Fore
SplineSet
78 1432 m 1,0,-1
 663 1432 l 1,1,-1
 686 1410 l 1,2,-1
 686 1185 l 1,3,-1
 663 1162 l 1,4,-1
 404 1162 l 1,5,-1
 404 903 l 1,6,-1
 618 903 l 1,7,-1
 641 881 l 1,8,-1
 641 644 l 1,9,-1
 618 622 l 1,10,-1
 404 622 l 1,11,-1
 404 284 l 1,12,-1
 674 284 l 1,13,-1
 697 261 l 1,14,-1
 697 25 l 1,15,-1
 674 2 l 1,16,-1
 78 2 l 1,17,-1
 55 25 l 1,18,-1
 55 1410 l 1,19,-1
 78 1432 l 1,0,-1
144 1733 m 5,20,-1
 144 1604 l 5,21,-1
 264 1506 l 5,22,-1
 541 1506 l 5,23,-1
 631 1626 l 5,24,-1
 631 1738 l 5,25,-1
 489 1738 l 5,26,-1
 489 1619 l 5,27,-1
 294 1619 l 5,28,-1
 294 1728 l 5,29,-1
 144 1733 l 5,20,-1
EndSplineSet
EndChar

StartChar: Scaron
Encoding: 352 352 143
Width: 999
Flags: W
LayerCount: 2
Fore
SplineSet
289 1431 m 1,0,-1
 649 1431 l 1,1,2
 873 1247 873 1247 892 1215 c 1,3,-1
 892 981 l 1,4,-1
 874 963 l 1,5,-1
 559 963 l 1,6,-1
 541 981 l 1,7,-1
 541 1161 l 1,8,-1
 406 1161 l 1,9,-1
 406 873 l 1,10,-1
 658 855 l 1,11,-1
 892 639 l 1,12,-1
 892 207 l 1,13,14
 681 0 681 0 640 0 c 2,15,-1
 289 0 l 1,16,-1
 55 216 l 1,17,-1
 55 441 l 1,18,-1
 73 459 l 1,19,-1
 388 459 l 1,20,-1
 406 441 l 1,21,-1
 406 270 l 1,22,-1
 541 270 l 1,23,-1
 541 567 l 1,24,25
 273 567 273 567 226 648 c 1,26,-1
 55 801 l 1,27,-1
 55 1215 l 1,28,-1
 289 1431 l 1,0,-1
229 1726 m 5,29,-1
 229 1597 l 5,30,-1
 349 1499 l 5,31,-1
 626 1499 l 5,32,-1
 716 1619 l 5,33,-1
 716 1731 l 5,34,-1
 574 1731 l 5,35,-1
 574 1612 l 5,36,-1
 379 1612 l 5,37,-1
 379 1721 l 5,38,-1
 229 1726 l 5,29,-1
EndSplineSet
EndChar

StartChar: Rcaron
Encoding: 344 344 144
Width: 999
Flags: W
LayerCount: 2
Fore
SplineSet
78 1429 m 1,0,-1
 641 1429 l 1,1,2
 749 1355 749 1355 888 1204 c 1,3,-1
 888 855 l 1,4,-1
 720 709 l 1,5,-1
 888 562 l 1,6,-1
 888 22 l 1,7,-1
 866 -1 l 1,8,-1
 573 -1 l 1,9,-1
 551 22 l 1,10,-1
 551 551 l 1,11,-1
 528 573 l 1,12,-1
 404 573 l 1,13,-1
 404 22 l 1,14,-1
 382 -1 l 1,15,-1
 78 -1 l 1,16,-1
 55 22 l 1,17,-1
 55 1407 l 1,18,-1
 78 1429 l 1,0,-1
404 1159 m 1,19,-1
 404 844 l 1,20,-1
 551 844 l 1,21,-1
 551 1159 l 1,22,-1
 404 1159 l 1,19,-1
231 1726 m 5,23,-1
 231 1597 l 5,24,-1
 351 1499 l 5,25,-1
 628 1499 l 5,26,-1
 718 1619 l 5,27,-1
 718 1731 l 5,28,-1
 576 1731 l 5,29,-1
 576 1612 l 5,30,-1
 381 1612 l 5,31,-1
 381 1721 l 5,32,-1
 231 1726 l 5,23,-1
EndSplineSet
EndChar

StartChar: Zcaron
Encoding: 381 381 145
Width: 999
Flags: W
LayerCount: 2
Fore
SplineSet
95 1431 m 5,0,-1
 900 1431 l 5,1,2
 892 1207 892 1207 892 1166 c 5,3,-1
 496 277 l 5,4,-1
 888 277 l 5,5,-1
 911 254 l 5,6,-1
 911 23 l 5,7,-1
 888 0 l 5,8,-1
 55 0 l 5,9,-1
 57 242 l 5,10,-1
 57 265 l 5,11,-1
 453 1154 l 5,12,-1
 95 1154 l 5,13,-1
 72 1177 l 5,14,-1
 72 1408 l 5,15,-1
 95 1431 l 5,0,-1
277 1725 m 1,16,-1
 277 1596 l 1,17,-1
 397 1498 l 1,18,-1
 674 1498 l 1,19,-1
 764 1618 l 1,20,-1
 764 1730 l 1,21,-1
 622 1730 l 1,22,-1
 622 1611 l 1,23,-1
 427 1611 l 1,24,-1
 427 1720 l 1,25,-1
 277 1725 l 1,16,-1
EndSplineSet
EndChar

StartChar: Ncaron
Encoding: 327 327 146
Width: 999
Flags: W
LayerCount: 2
Fore
SplineSet
78 1431 m 5,0,-1
 355 1431 l 6,1,2
 382 1431 382 1431 586 773 c 5,3,-1
 597 773 l 5,4,-1
 597 1408 l 5,5,-1
 620 1431 l 5,6,-1
 932 1431 l 5,7,-1
 955 1408 l 5,8,-1
 955 23 l 5,9,-1
 932 0 l 5,10,-1
 655 0 l 6,11,12
 632 0 632 0 413 681 c 5,13,-1
 401 681 l 5,14,-1
 401 23 l 5,15,-1
 378 0 l 5,16,-1
 78 0 l 5,17,-1
 55 23 l 5,18,-1
 55 1408 l 5,19,-1
 78 1431 l 5,0,-1
277 1725 m 1,20,-1
 277 1596 l 1,21,-1
 397 1498 l 1,22,-1
 674 1498 l 1,23,-1
 764 1618 l 1,24,-1
 764 1730 l 1,25,-1
 622 1730 l 1,26,-1
 622 1611 l 1,27,-1
 427 1611 l 1,28,-1
 427 1720 l 1,29,-1
 277 1725 l 1,20,-1
EndSplineSet
EndChar

StartChar: Tcaron
Encoding: 356 356 147
Width: 899
Flags: W
LayerCount: 2
Fore
SplineSet
78 1431 m 1,0,-1
 765 1431 l 1,1,-1
 787 1409 l 1,2,-1
 787 1172 l 1,3,-1
 765 1150 l 1,4,-1
 596 1150 l 1,5,-1
 596 12 l 1,6,-1
 573 -10 l 1,7,-1
 269 -10 l 1,8,-1
 246 12 l 1,9,-1
 246 1150 l 1,10,-1
 78 1150 l 1,11,-1
 55 1172 l 1,12,-1
 55 1409 l 1,13,-1
 78 1431 l 1,0,-1
181 1722 m 5,14,-1
 181 1593 l 5,15,-1
 301 1495 l 5,16,-1
 578 1495 l 5,17,-1
 668 1615 l 5,18,-1
 668 1727 l 5,19,-1
 526 1727 l 5,20,-1
 526 1608 l 5,21,-1
 331 1608 l 5,22,-1
 331 1717 l 5,23,-1
 181 1722 l 5,14,-1
EndSplineSet
EndChar

StartChar: Ecaron
Encoding: 282 282 148
Width: 747
Flags: W
LayerCount: 2
Fore
SplineSet
78 1432 m 1,0,-1
 663 1432 l 1,1,-1
 686 1410 l 1,2,-1
 686 1185 l 1,3,-1
 663 1162 l 1,4,-1
 404 1162 l 1,5,-1
 404 903 l 1,6,-1
 618 903 l 1,7,-1
 641 881 l 1,8,-1
 641 644 l 1,9,-1
 618 622 l 1,10,-1
 404 622 l 1,11,-1
 404 284 l 1,12,-1
 674 284 l 1,13,-1
 697 261 l 1,14,-1
 697 25 l 1,15,-1
 674 2 l 1,16,-1
 78 2 l 1,17,-1
 55 25 l 1,18,-1
 55 1410 l 1,19,-1
 78 1432 l 1,0,-1
137 1722 m 5,20,-1
 137 1593 l 5,21,-1
 257 1495 l 5,22,-1
 534 1495 l 5,23,-1
 624 1615 l 5,24,-1
 624 1727 l 5,25,-1
 482 1727 l 5,26,-1
 482 1608 l 5,27,-1
 287 1608 l 5,28,-1
 287 1717 l 5,29,-1
 137 1722 l 5,20,-1
EndSplineSet
EndChar

StartChar: Eacute
Encoding: 201 201 149
Width: 752
Flags: W
LayerCount: 2
Fore
SplineSet
504 1732 m 1,0,-1
 500 1734 l 1,1,-1
 339 1498 l 1,2,-1
 457 1496 l 1,3,-1
 652 1620 l 1,4,-1
 646 1732 l 1,5,-1
 504 1732 l 1,6,-1
 500 1734 l 1,7,-1
 504 1732 l 1,8,-1
 504 1732 l 1,9,-1
 504 1732 l 1,0,-1
78 1432 m 5,10,-1
 663 1432 l 5,11,-1
 686 1410 l 5,12,-1
 686 1185 l 5,13,-1
 663 1162 l 5,14,-1
 404 1162 l 5,15,-1
 404 903 l 5,16,-1
 618 903 l 5,17,-1
 641 881 l 5,18,-1
 641 644 l 5,19,-1
 618 622 l 5,20,-1
 404 622 l 5,21,-1
 404 284 l 5,22,-1
 674 284 l 5,23,-1
 697 261 l 5,24,-1
 697 25 l 5,25,-1
 674 2 l 5,26,-1
 78 2 l 5,27,-1
 55 25 l 5,28,-1
 55 1410 l 5,29,-1
 78 1432 l 5,10,-1
EndSplineSet
EndChar

StartChar: Aacute
Encoding: 193 193 150
Width: 958
Flags: W
LayerCount: 2
Fore
SplineSet
622 1730 m 5,0,-1
 618 1732 l 5,1,-1
 457 1496 l 5,2,-1
 575 1494 l 5,3,-1
 770 1618 l 5,4,-1
 764 1730 l 5,5,-1
 622 1730 l 5,6,-1
 618 1732 l 5,7,-1
 622 1730 l 5,8,-1
 622 1730 l 5,9,-1
 622 1730 l 5,0,-1
296 1431 m 1,10,-1
 674 1431 l 1,11,-1
 903 1213 l 1,12,-1
 903 22 l 1,13,-1
 880 -1 l 1,14,-1
 570 -1 l 1,15,-1
 548 22 l 1,16,-1
 548 263 l 1,17,-1
 410 263 l 1,18,-1
 410 22 l 1,19,-1
 387 -1 l 1,20,-1
 78 -1 l 1,21,-1
 55 22 l 1,22,-1
 55 1213 l 1,23,-1
 296 1431 l 1,10,-1
410 1156 m 1,24,-1
 410 549 l 1,25,-1
 548 549 l 1,26,-1
 548 1156 l 1,27,-1
 410 1156 l 1,24,-1
EndSplineSet
EndChar

StartChar: Iacute
Encoding: 205 205 151
Width: 465
Flags: W
LayerCount: 2
Fore
SplineSet
329 1724 m 5,0,-1
 325 1726 l 5,1,-1
 164 1490 l 5,2,-1
 282 1488 l 5,3,-1
 477 1612 l 5,4,-1
 471 1724 l 5,5,-1
 329 1724 l 5,6,-1
 325 1726 l 5,7,-1
 329 1724 l 5,8,-1
 329 1724 l 5,9,-1
 329 1724 l 5,0,-1
78 1431 m 1,10,-1
 387 1431 l 1,11,-1
 410 1408 l 1,12,-1
 410 22 l 1,13,-1
 387 -1 l 1,14,-1
 78 -1 l 1,15,-1
 55 22 l 1,16,-1
 55 1408 l 1,17,-1
 78 1431 l 1,10,-1
EndSplineSet
EndChar

StartChar: Oacute
Encoding: 211 211 152
Width: 999
Flags: W
LayerCount: 2
Fore
SplineSet
611 1736 m 5,0,-1
 607 1738 l 5,1,-1
 446 1502 l 5,2,-1
 564 1500 l 5,3,-1
 759 1624 l 5,4,-1
 753 1736 l 5,5,-1
 611 1736 l 5,6,-1
 607 1738 l 5,7,-1
 611 1736 l 5,8,-1
 611 1736 l 5,9,-1
 611 1736 l 5,0,-1
297 1431 m 1,10,-1
 690 1431 l 1,11,-1
 944 1212 l 1,12,-1
 944 219 l 1,13,14
 874 134 874 134 701 0 c 1,15,-1
 297 0 l 1,16,17
 99 160 99 160 55 219 c 1,18,-1
 55 1212 l 1,19,-1
 297 1431 l 1,10,-1
424 1154 m 1,20,-1
 424 277 l 1,21,-1
 574 277 l 1,22,-1
 574 1154 l 1,23,-1
 424 1154 l 1,20,-1
EndSplineSet
EndChar

StartChar: Uring
Encoding: 366 366 153
Width: 956
Flags: W
LayerCount: 2
Fore
SplineSet
232 1727 m 1,0,-1
 232 1856 l 1,1,-1
 352 1954 l 1,2,-1
 629 1954 l 1,3,-1
 719 1834 l 1,4,-1
 719 1722 l 1,5,-1
 577 1722 l 1,6,-1
 577 1841 l 1,7,-1
 382 1841 l 1,8,-1
 382 1732 l 1,9,-1
 232 1727 l 1,0,-1
232 1737 m 1,10,-1
 232 1608 l 1,11,-1
 352 1510 l 1,12,-1
 629 1510 l 1,13,-1
 719 1630 l 1,14,-1
 719 1742 l 1,15,-1
 577 1742 l 1,16,-1
 577 1623 l 1,17,-1
 382 1623 l 1,18,-1
 382 1732 l 1,19,-1
 232 1737 l 1,10,-1
73 1431 m 1,20,-1
 388 1431 l 1,21,-1
 406 1413 l 1,22,-1
 406 270 l 1,23,-1
 550 270 l 1,24,-1
 550 1413 l 1,25,-1
 568 1431 l 1,26,-1
 883 1431 l 1,27,-1
 901 1413 l 1,28,-1
 901 216 l 1,29,30
 777 83 777 83 667 0 c 1,31,-1
 289 0 l 1,32,33
 95 164 95 164 55 216 c 1,34,-1
 55 1413 l 1,35,-1
 73 1431 l 1,20,-1
EndSplineSet
EndChar

StartChar: Uacute
Encoding: 218 218 154
Width: 956
Flags: W
LayerCount: 2
Fore
SplineSet
588 1752 m 5,0,-1
 584 1754 l 5,1,-1
 423 1518 l 5,2,-1
 541 1516 l 5,3,-1
 736 1640 l 5,4,-1
 730 1752 l 5,5,-1
 588 1752 l 5,6,-1
 584 1754 l 5,7,-1
 588 1752 l 5,8,-1
 588 1752 l 5,9,-1
 588 1752 l 5,0,-1
73 1431 m 1,10,-1
 388 1431 l 1,11,-1
 406 1413 l 1,12,-1
 406 270 l 1,13,-1
 550 270 l 1,14,-1
 550 1413 l 1,15,-1
 568 1431 l 1,16,-1
 883 1431 l 1,17,-1
 901 1413 l 1,18,-1
 901 216 l 1,19,20
 777 83 777 83 667 0 c 1,21,-1
 289 0 l 1,22,23
 95 164 95 164 55 216 c 1,24,-1
 55 1413 l 1,25,-1
 73 1431 l 1,10,-1
EndSplineSet
EndChar

StartChar: Edieresis
Encoding: 203 203 155
Width: 752
Flags: W
LayerCount: 2
Fore
SplineSet
444 1678 m 1,0,-1
 604 1678 l 1,1,-1
 604 1534 l 1,2,-1
 444 1534 l 1,3,-1
 444 1678 l 1,0,-1
196 1678 m 1,4,-1
 356 1678 l 1,5,-1
 356 1534 l 1,6,-1
 196 1534 l 1,7,-1
 196 1678 l 1,4,-1
78 1432 m 1,8,-1
 663 1432 l 1,9,-1
 686 1410 l 1,10,-1
 686 1185 l 1,11,-1
 663 1162 l 1,12,-1
 404 1162 l 1,13,-1
 404 903 l 1,14,-1
 618 903 l 1,15,-1
 641 881 l 1,16,-1
 641 644 l 1,17,-1
 618 622 l 1,18,-1
 404 622 l 1,19,-1
 404 284 l 1,20,-1
 674 284 l 1,21,-1
 697 261 l 1,22,-1
 697 25 l 1,23,-1
 674 2 l 1,24,-1
 78 2 l 1,25,-1
 55 25 l 1,26,-1
 55 1410 l 1,27,-1
 78 1432 l 1,8,-1
EndSplineSet
EndChar

StartChar: Yacute
Encoding: 221 221 156
Width: 1102
Flags: WO
LayerCount: 2
Fore
SplineSet
622 1730 m 5,0,-1
 618 1732 l 5,1,-1
 457 1496 l 5,2,-1
 575 1494 l 5,3,-1
 770 1618 l 5,4,-1
 764 1730 l 5,5,-1
 622 1730 l 5,6,-1
 618 1732 l 5,7,-1
 622 1730 l 5,8,-1
 622 1730 l 5,9,-1
 622 1730 l 5,0,-1
55 1431 m 1,10,-1
 401 1431 l 2,11,12
 432 1431 432 1431 540 923 c 1,13,-1
 551 923 l 1,14,15
 667 1431 667 1431 701 1431 c 2,16,-1
 1024 1431 l 1,17,-1
 1036 1419 l 1,18,-1
 1047 1419 l 1,19,-1
 736 589 l 1,20,-1
 736 23 l 1,21,-1
 713 0 l 1,22,-1
 378 0 l 1,23,-1
 355 23 l 1,24,-1
 355 577 l 1,25,-1
 55 1419 l 1,26,-1
 55 1431 l 1,10,-1
EndSplineSet
EndChar
